# FamiTracker text export 0.4.2

# Song information
TITLE           ""
AUTHOR          ""
COPYRIGHT       ""

# Song comment
COMMENT ""

# Global settings
MACHINE         0
FRAMERATE       0
EXPANSION       0
VIBRATO         1
SPLIT           32

# Macros
MACRO       0   0  -1  -1   0 : 12 9 8 5 4 2 1 0 0 0 0 0 0 0
MACRO       0   1  -1  -1   0 : 12 10 8 6 4 2 0 0
MACRO       0   2  -1  -1   0 : 8 9 10 10 11 11 11 9 9 8 8 8 7 7 7 7 7 7 7 7 7 7 7 7 7 7 7 7 6 6 6 6 6 6 6 6 6 6 6 6 6 6 5 5 5 5 5 5 5 5 5 5 4 4 4 4 4 4 4
MACRO       0   3  -1  -1   0 : 14 14 14 13 13 12 12 11 10 9 8 8 7 6 5 5 4
MACRO       0   4  -1  -1   0 : 12 9 8 5 4 2 3 3 3 2 2 2 2 2
MACRO       0   5  -1  -1   0 : 14 14 14 13 13 12 12 11 10 9 8 9 9 9 8 8 8
MACRO       0   6  -1  -1   0 : 12 9 8 5 4 2 1 0 0 0 0 0 0 0
MACRO       0   7  -1  -1   0 : 15 12 11 10 9 9 8 8 8 8 8 8 7 7 7 7
MACRO       0   8  -1  -1   0 : 12 10 8 6 4 2 0 0
MACRO       0   9  -1  -1   0 : 14 14 14 13 13 12 12 11 10 9 8 8 7 6 5 5 4
MACRO       0  10  -1  -1   0 : 6 5 4 3 2 1 2 2 2 1 1 1 1 1
MACRO       0  11  -1  -1   0 : 12 9 8 5 4 2 3 3 3 2 2 2 1 1 1 1 1 1
MACRO       0  12  -1  -1   0 : 4 5 5 5 6 6 6 5 5 4 4 4 4 4 4 4 4 4 4 4 4 4 4 4 4 4 4 4 3 3 3 3 3 3 3 3 3 3 3 3 3 3 3 3 3 3 3 3 3 3 3 3 2 2 2 2 2 2 2
MACRO       0  13  -1  -1   0 : 12 9 8 5 4 2 1 0 0 0 0 0 0 0
MACRO       0  14  -1  -1   0 : 12 10 8 6 4 2 0 0
MACRO       0  15  -1  -1   0 : 8 9 10 10 11 11 11 9 9 8 8 8 7 7 7 7 7 7 7 7 7 7 7 7 7 7 7 7 6 6 6 6 6 6 6 6 6 6 6 6 6 6 5 5 5 5 5 5 5 5 5 5 4 4 4 4 4 4 4
MACRO       0  16  -1  -1   0 : 14 14 14 13 13 12 12 11 10 9 8 8 7 6 5 5 4
MACRO       0  17  -1  -1   0 : 12 9 8 5 4 2 3 3 3 2 1 0 0 0
MACRO       0  18  -1  -1   0 : 14 14 14 13 13 12 12 11 10 9 8 9 9 9 8 8 8
MACRO       0  19  -1  -1   0 : 12 9 8 5 4 2 1 0 0 0 0 0 0 0
MACRO       0  20  -1  -1   0 : 15 12 11 10 9 9 8 8 8 8 8 8 7 7 7 7
MACRO       0  21  -1  -1   0 : 12 10 8 6 4 2 0 0
MACRO       0  22  -1  -1   0 : 14 14 14 13 13 12 12 11 10 9 8 8 7 6 5 5 4
MACRO       0  23  -1  -1   0 : 6 5 4 3 2 1 2 2 2 1 1 1 1 1
MACRO       0  24  -1  -1   0 : 12 9 8 5 4 2 3 3 3 2 2 2 1 1 1 1 1 1
MACRO       0  25  -1  -1   0 : 4 5 5 5 6 6 6 5 5 4 4 4 4 4 4 4 4 4 4 4 4 4 4 4 4 4 4 4 3 3 3 3 3 3 3 3 3 3 3 3 3 3 3 3 3 3 3 3 3 3 3 3 2 2 2 2 2 2 2
MACRO       0  26  -1  -1   0 : 12 9 8 5 4 2 1 0 0 0 0 0 0 0
MACRO       0  27  -1  -1   0 : 12 10 8 6 4 2 0 0
MACRO       0  28  -1  -1   0 : 8 9 10 10 11 11 11 9 9 8 8 8 7 7 7 7 7 7 7 7 7 7 7 7 7 7 7 7 6 6 6 6 6 6 6 6 6 6 6 6 6 6 5 5 5 5 5 5 5 5 5 5 4 4 4 4 4 4 4
MACRO       0  29  -1  -1   0 : 14 14 14 13 13 12 12 11 10 9 8 8 7 6 5 5 4
MACRO       0  30  -1  -1   0 : 12 9 8 5 4 2 3 3 3 2 2 2 2 2
MACRO       0  31  -1  -1   0 : 14 14 14 13 13 12 12 11 10 9 8 9 9 9 8 8 8
MACRO       0  32  -1  -1   0 : 12 9 8 5 4 2 1 0 0 0 0 0 0 0
MACRO       0  33  -1  -1   0 : 15 12 11 10 9 9 8 8 8 8 8 8 7 7 7 7
MACRO       0  34  -1  -1   0 : 12 10 8 6 4 2 0 0
MACRO       0  35  -1  -1   0 : 14 14 14 13 13 12 12 11 10 9 8 8 7 6 5 5 4
MACRO       0  36  -1  -1   0 : 6 5 4 3 2 1 2 2 2 1 1 1 1 1
MACRO       0  37  -1  -1   0 : 12 9 8 5 4 2 3 3 3 2 2 2 1 1 1 1 1 1
MACRO       0  38  -1  -1   0 : 4 5 5 5 6 6 6 5 5 4 4 4 4 4 4 4 4 4 4 4 4 4 4 4 4 4 4 4 3 3 3 3 3 3 3 3 3 3 3 3 3 3 3 3 3 3 3 3 3 3 3 3 2 2 2 2 2 2 2
MACRO       0  39  -1  -1   0 : 12 9 8 5 4 2 1 0 0 0 0 0 0 0
MACRO       0  40  -1  -1   0 : 12 10 8 6 4 2 0 0
MACRO       0  41  -1  -1   0 : 8 9 10 10 11 11 11 9 9 8 8 8 7 7 7 7 7 7 7 7 7 7 7 7 7 7 7 7 6 6 6 6 6 6 6 6 6 6 6 6 6 6 5 5 5 5 5 5 5 5 5 5 4 4 4 4 4 4 4
MACRO       0  42  -1  -1   0 : 14 14 14 13 13 12 12 11 10 9 8 8 7 6 5 5 4
MACRO       0  43  -1  -1   0 : 12 9 8 5 4 2 3 3 3 2 1 0 0 0
MACRO       0  44  -1  -1   0 : 14 14 14 13 13 12 12 11 10 9 8 9 9 9 8 8 8
MACRO       0  45  -1  -1   0 : 12 9 8 5 4 2 1 0 0 0 0 0 0 0
MACRO       0  46  -1  -1   0 : 15 12 11 10 9 9 8 8 8 8 8 8 7 7 7 7
MACRO       0  47  -1  -1   0 : 15 13 11 6 2 0 0 0
MACRO       0  48  -1  -1   0 : 14 14 14 13 13 12 12 11 10 9 8 8 7 6 5 5 4
MACRO       0  49  -1  -1   0 : 6 5 4 3 2 1 2 2 2 1 1 1 1 1
MACRO       0  50  -1  -1   0 : 8 6 5 5 3 3 2 2 2 2 1 1 1 1 1 1 1 1
MACRO       0  51  -1  -1   0 : 4 5 5 5 6 6 6 5 5 4 4 4 4 4 4 4 4 4 4 4 4 4 4 4 4 4 4 4 3 3 3 3 3 3 3 3 3 3 3 3 3 3 3 3 3 3 3 3 3 3 3 3 2 2 2 2 2 2 2
MACRO       0  52  -1  -1   0 : 12 10 8 6 4 2 2 2 2 2 2 0
MACRO       0  53  -1  -1   0 : 6 5 4 3 2 1 0 0
MACRO       1   0  -1  -1   0 : 0 0 0 0 0 0
MACRO       1   1   0  -1   0 : 0 0 3 3 7 7 0 0
MACRO       1   2   0  -1   0 : 1 1 4 4 7 7 4 4
MACRO       1   3  -1  -1   0 : 0 0 0
MACRO       1   4  -1  -1   0 : 0 0 -1
MACRO       1   5  -1  -1   0 : 0 0 0
MACRO       1   6   0  -1   0 : 0 0 3 3 7 7 0 0
MACRO       1   7   0  -1   0 : 1 1 4 4 7 7 4 4
MACRO       1   8  -1  -1   0 : 0 0 0
MACRO       1   9  -1  -1   0 : 0 0 -1
MACRO       1  10  -1  -1   0 : 0 0 0
MACRO       1  11   0  -1   0 : 0 0 3 3 7 7 0 0
MACRO       1  12   0  -1   0 : 1 1 4 4 7 7 4 4
MACRO       1  13  -1  -1   0 : 0 0 0
MACRO       1  14  -1  -1   0 : 0 0 -1
MACRO       1  15  -1  -1   0 : 0 0 0
MACRO       1  16   0  -1   0 : 0 0 3 3 7 7 0 0
MACRO       1  17   0  -1   0 : 1 1 4 4 7 7 4 4
MACRO       1  18  -1  -1   0 : 0 0 0
MACRO       1  19  -1  -1   0 : 0 0 -1
MACRO       1  20  10  -1   0 : 0 0 0 0 0 0 0 0 0 0 1 -1
MACRO       2   0   0  -1   0 : 0 0 5 -5
MACRO       2   1  -1  -1   0 : 10 5 5 3
MACRO       2   2  -1  -1   0 : 10 5 5 3
MACRO       2   3  -1  -1   0 : 10 5 5 3
MACRO       2   4  10  -1   0 : 0 0 0 0 0 0 0 0 0 0 -8 -23
MACRO       3   0  -1  -1   0 : 35 15 10 1
MACRO       3   1  -1  -1   0 : 35 15 10 1
MACRO       3   2  -1  -1   0 : 35 15 10 1
MACRO       3   3  -1  -1   0 : 35 15 10 1
MACRO       4   0  -1  -1   0 : 3
MACRO       4   1   0  -1   0 : 1 2
MACRO       4   2  -1  -1   0 : 2
MACRO       4   3   0  -1   0 : 1 2
MACRO       4   4   0  -1   0 : 1 2
MACRO       4   5  -1  -1   0 : 2
MACRO       4   6  -1  -1   0 : 0
MACRO       4   7   0  -1   0 : 0 0
MACRO       4   8  -1  -1   0 : 2
MACRO       4   9   0  -1   0 : 1 2
MACRO       4  10   0  -1   0 : 1 2
MACRO       4  11  -1  -1   0 : 0
MACRO       4  12  -1  -1   0 : 2 1 2 2
MACRO       4  13   0  -1   0 : 1 2
MACRO       4  14  -1  -1   0 : 2
MACRO       4  15   0  -1   0 : 1 2
MACRO       4  16   0  -1   0 : 1 2
MACRO       4  17  -1  -1   0 : 2
MACRO       4  18  -1  -1   0 : 0
MACRO       4  19   0  -1   0 : 0 0
MACRO       4  20  -1  -1   0 : 2
MACRO       4  21   0  -1   0 : 1 2
MACRO       4  22   0  -1   0 : 2 2
MACRO       4  23  -1  -1   0 : 0
MACRO       4  24  -1  -1   0 : 2 2 1 2 2

# DPCM samples

# Instruments
INST2A03   0     4   0  -1  -1   1 "bass"
INST2A03   1     1  -1  -1  -1  -1 "drums"
INST2A03   2     2  -1  -1  -1   0 "lead"
INST2A03   3     3  -1  -1  -1  -1 "piano"
INST2A03   4     5   1  -1  -1   1 "piano2"
INST2A03   5     5   2  -1  -1   1 "piano2-major"
INST2A03   6     5   2  -1  -1   1 "piano2-weird"
INST2A03   7     6  -1  -1  -1  -1 "vl-bass"
INST2A03   8     7  -1  -1  -1   2 "vl-lead"
INST2A03   9     8  -1  -1  -1  -1 "vl-drums"
INST2A03  10     9  -1  -1  -1  -1 "vl-piano"
INST2A03  12    11   4  -1  -1   4 "bass (weird)"

# Tracks

TRACK  64   6 150 "Silence"
COLUMNS : 1 1 1 1 1

ORDER 00 : 00 00 00 00 00

PATTERN 00
ROW 00 : --- .. . ... : ... .. . ... : ... .. . ... : ... .. . ... : ... .. . ...
ROW 01 : ... .. . ... : ... .. . ... : ... .. . ... : ... .. . ... : ... .. . ...
ROW 02 : ... .. . ... : ... .. . ... : ... .. . ... : ... .. . ... : ... .. . ...
ROW 03 : ... .. . ... : ... .. . ... : ... .. . ... : ... .. . ... : ... .. . ...
ROW 04 : ... .. . ... : ... .. . ... : ... .. . ... : ... .. . ... : ... .. . ...
ROW 05 : ... .. . ... : ... .. . ... : ... .. . ... : ... .. . ... : ... .. . ...
ROW 06 : ... .. . ... : ... .. . ... : ... .. . ... : ... .. . ... : ... .. . ...
ROW 07 : ... .. . ... : ... .. . ... : ... .. . ... : ... .. . ... : ... .. . ...
ROW 08 : ... .. . ... : ... .. . ... : ... .. . ... : ... .. . ... : ... .. . ...
ROW 09 : ... .. . ... : ... .. . ... : ... .. . ... : ... .. . ... : ... .. . ...
ROW 0A : ... .. . ... : ... .. . ... : ... .. . ... : ... .. . ... : ... .. . ...
ROW 0B : ... .. . ... : ... .. . ... : ... .. . ... : ... .. . ... : ... .. . ...
ROW 0C : ... .. . ... : ... .. . ... : ... .. . ... : ... .. . ... : ... .. . ...
ROW 0D : ... .. . ... : ... .. . ... : ... .. . ... : ... .. . ... : ... .. . ...
ROW 0E : ... .. . ... : ... .. . ... : ... .. . ... : ... .. . ... : ... .. . ...
ROW 0F : ... .. . ... : ... .. . ... : ... .. . ... : ... .. . ... : ... .. . ...
ROW 10 : ... .. . B00 : ... .. . ... : ... .. . ... : ... .. . ... : ... .. . ...
ROW 11 : ... .. . ... : ... .. . ... : ... .. . ... : ... .. . ... : ... .. . ...
ROW 12 : ... .. . ... : ... .. . ... : ... .. . ... : ... .. . ... : ... .. . ...
ROW 13 : ... .. . ... : ... .. . ... : ... .. . ... : ... .. . ... : ... .. . ...
ROW 14 : ... .. . ... : ... .. . ... : ... .. . ... : ... .. . ... : ... .. . ...
ROW 15 : ... .. . ... : ... .. . ... : ... .. . ... : ... .. . ... : ... .. . ...
ROW 16 : ... .. . ... : ... .. . ... : ... .. . ... : ... .. . ... : ... .. . ...
ROW 17 : ... .. . ... : ... .. . ... : ... .. . ... : ... .. . ... : ... .. . ...
ROW 18 : ... .. . ... : ... .. . ... : ... .. . ... : ... .. . ... : ... .. . ...
ROW 19 : ... .. . ... : ... .. . ... : ... .. . ... : ... .. . ... : ... .. . ...
ROW 1A : ... .. . ... : ... .. . ... : ... .. . ... : ... .. . ... : ... .. . ...
ROW 1B : ... .. . ... : ... .. . ... : ... .. . ... : ... .. . ... : ... .. . ...
ROW 1C : ... .. . ... : ... .. . ... : ... .. . ... : ... .. . ... : ... .. . ...
ROW 1D : ... .. . ... : ... .. . ... : ... .. . ... : ... .. . ... : ... .. . ...
ROW 1E : ... .. . ... : ... .. . ... : ... .. . ... : ... .. . ... : ... .. . ...
ROW 1F : ... .. . ... : ... .. . ... : ... .. . ... : ... .. . ... : ... .. . ...
ROW 20 : ... .. . ... : ... .. . ... : ... .. . ... : ... .. . ... : ... .. . ...
ROW 21 : ... .. . ... : ... .. . ... : ... .. . ... : ... .. . ... : ... .. . ...
ROW 22 : ... .. . ... : ... .. . ... : ... .. . ... : ... .. . ... : ... .. . ...
ROW 23 : ... .. . ... : ... .. . ... : ... .. . ... : ... .. . ... : ... .. . ...
ROW 24 : ... .. . ... : ... .. . ... : ... .. . ... : ... .. . ... : ... .. . ...
ROW 25 : ... .. . ... : ... .. . ... : ... .. . ... : ... .. . ... : ... .. . ...
ROW 26 : ... .. . ... : ... .. . ... : ... .. . ... : ... .. . ... : ... .. . ...
ROW 27 : ... .. . ... : ... .. . ... : ... .. . ... : ... .. . ... : ... .. . ...
ROW 28 : ... .. . ... : ... .. . ... : ... .. . ... : ... .. . ... : ... .. . ...
ROW 29 : ... .. . ... : ... .. . ... : ... .. . ... : ... .. . ... : ... .. . ...
ROW 2A : ... .. . ... : ... .. . ... : ... .. . ... : ... .. . ... : ... .. . ...
ROW 2B : ... .. . ... : ... .. . ... : ... .. . ... : ... .. . ... : ... .. . ...
ROW 2C : ... .. . ... : ... .. . ... : ... .. . ... : ... .. . ... : ... .. . ...
ROW 2D : ... .. . ... : ... .. . ... : ... .. . ... : ... .. . ... : ... .. . ...
ROW 2E : ... .. . ... : ... .. . ... : ... .. . ... : ... .. . ... : ... .. . ...
ROW 2F : ... .. . ... : ... .. . ... : ... .. . ... : ... .. . ... : ... .. . ...
ROW 30 : ... .. . ... : ... .. . ... : ... .. . ... : ... .. . ... : ... .. . ...
ROW 31 : ... .. . ... : ... .. . ... : ... .. . ... : ... .. . ... : ... .. . ...
ROW 32 : ... .. . ... : ... .. . ... : ... .. . ... : ... .. . ... : ... .. . ...
ROW 33 : ... .. . ... : ... .. . ... : ... .. . ... : ... .. . ... : ... .. . ...
ROW 34 : ... .. . ... : ... .. . ... : ... .. . ... : ... .. . ... : ... .. . ...
ROW 35 : ... .. . ... : ... .. . ... : ... .. . ... : ... .. . ... : ... .. . ...
ROW 36 : ... .. . ... : ... .. . ... : ... .. . ... : ... .. . ... : ... .. . ...
ROW 37 : ... .. . ... : ... .. . ... : ... .. . ... : ... .. . ... : ... .. . ...
ROW 38 : ... .. . ... : ... .. . ... : ... .. . ... : ... .. . ... : ... .. . ...
ROW 39 : ... .. . ... : ... .. . ... : ... .. . ... : ... .. . ... : ... .. . ...
ROW 3A : ... .. . ... : ... .. . ... : ... .. . ... : ... .. . ... : ... .. . ...
ROW 3B : ... .. . ... : ... .. . ... : ... .. . ... : ... .. . ... : ... .. . ...
ROW 3C : ... .. . ... : ... .. . ... : ... .. . ... : ... .. . ... : ... .. . ...
ROW 3D : ... .. . ... : ... .. . ... : ... .. . ... : ... .. . ... : ... .. . ...
ROW 3E : ... .. . ... : ... .. . ... : ... .. . ... : ... .. . ... : ... .. . ...
ROW 3F : ... .. . ... : ... .. . ... : ... .. . ... : ... .. . ... : ... .. . ...

TRACK  64   3 150 "Scratchpad"
COLUMNS : 1 1 1 1 1

ORDER 00 : 00 00 00 00 00

PATTERN 00
ROW 00 : C-3 02 . ... : ... .. . ... : ... .. . ... : 1-# 09 . ... : ... .. . ...
ROW 01 : ... .. . ... : ... .. . ... : ... .. . ... : ... .. . ... : ... .. . ...
ROW 02 : ... .. . ... : ... .. . ... : ... .. . ... : ... .. . ... : ... .. . ...
ROW 03 : ... .. . ... : ... .. . ... : ... .. . ... : ... .. . ... : ... .. . ...
ROW 04 : ... .. . ... : ... .. . ... : ... .. . ... : ... .. . ... : ... .. . ...
ROW 05 : ... .. . ... : ... .. . ... : ... .. . ... : ... .. . ... : ... .. . ...
ROW 06 : ... .. . ... : ... .. . ... : ... .. . ... : ... .. . ... : ... .. . ...
ROW 07 : ... .. . ... : ... .. . ... : ... .. . ... : ... .. . ... : ... .. . ...
ROW 08 : ... .. . ... : ... .. . ... : ... .. . ... : 6-# 09 . ... : ... .. . ...
ROW 09 : ... .. . ... : ... .. . ... : ... .. . ... : ... .. . ... : ... .. . ...
ROW 0A : ... .. . ... : ... .. . ... : ... .. . ... : ... .. . ... : ... .. . ...
ROW 0B : ... .. . ... : ... .. . ... : ... .. . ... : ... .. . ... : ... .. . ...
ROW 0C : E-4 02 . ... : ... .. . ... : ... .. . ... : 1-# 09 . ... : ... .. . ...
ROW 0D : ... .. . ... : ... .. . ... : ... .. . ... : ... .. . ... : ... .. . ...
ROW 0E : ... .. . ... : ... .. . ... : ... .. . ... : ... .. . ... : ... .. . ...
ROW 0F : ... .. . ... : ... .. . ... : ... .. . ... : ... .. . ... : ... .. . ...
ROW 10 : C-4 02 . ... : ... .. . ... : ... .. . ... : 1-# 09 . ... : ... .. . ...
ROW 11 : ... .. . ... : ... .. . ... : ... .. . ... : ... .. . ... : ... .. . ...
ROW 12 : ... .. . ... : ... .. . ... : ... .. . ... : ... .. . ... : ... .. . ...
ROW 13 : ... .. . ... : ... .. . ... : ... .. . ... : ... .. . ... : ... .. . ...
ROW 14 : ... .. . ... : ... .. . ... : ... .. . ... : 6-# 09 . ... : ... .. . ...
ROW 15 : ... .. . ... : ... .. . ... : ... .. . ... : ... .. . ... : ... .. . ...
ROW 16 : ... .. . ... : ... .. . ... : ... .. . ... : ... .. . ... : ... .. . ...
ROW 17 : ... .. . ... : ... .. . ... : ... .. . ... : ... .. . ... : ... .. . ...
ROW 18 : ... .. . ... : ... .. . ... : ... .. . ... : 6-# 09 . ... : ... .. . ...
ROW 19 : ... .. . ... : ... .. . ... : ... .. . ... : ... .. . ... : ... .. . ...
ROW 1A : ... .. . ... : ... .. . ... : ... .. . ... : ... .. . ... : ... .. . ...
ROW 1B : ... .. . ... : ... .. . ... : ... .. . ... : ... .. . ... : ... .. . ...
ROW 1C : ... .. . ... : ... .. . ... : ... .. . ... : ... .. . ... : ... .. . ...
ROW 1D : ... .. . ... : ... .. . ... : ... .. . ... : ... .. . ... : ... .. . ...
ROW 1E : ... .. . ... : ... .. . ... : ... .. . ... : ... .. . ... : ... .. . ...
ROW 1F : ... .. . ... : ... .. . ... : ... .. . ... : ... .. . ... : ... .. . ...
ROW 20 : G-4 02 . ... : ... .. . ... : ... .. . ... : 1-# 09 . ... : ... .. . ...
ROW 21 : ... .. . ... : ... .. . ... : ... .. . ... : ... .. . ... : ... .. . ...
ROW 22 : ... .. . ... : ... .. . ... : ... .. . ... : ... .. . ... : ... .. . ...
ROW 23 : ... .. . ... : ... .. . ... : ... .. . ... : ... .. . ... : ... .. . ...
ROW 24 : ... .. . ... : ... .. . ... : ... .. . ... : ... .. . ... : ... .. . ...
ROW 25 : ... .. . ... : ... .. . ... : ... .. . ... : ... .. . ... : ... .. . ...
ROW 26 : ... .. . ... : ... .. . ... : ... .. . ... : ... .. . ... : ... .. . ...
ROW 27 : ... .. . ... : ... .. . ... : ... .. . ... : ... .. . ... : ... .. . ...
ROW 28 : ... .. . ... : ... .. . ... : ... .. . ... : 6-# 09 . ... : ... .. . ...
ROW 29 : ... .. . ... : ... .. . ... : ... .. . ... : ... .. . ... : ... .. . ...
ROW 2A : ... .. . ... : ... .. . ... : ... .. . ... : ... .. . ... : ... .. . ...
ROW 2B : ... .. . ... : ... .. . ... : ... .. . ... : ... .. . ... : ... .. . ...
ROW 2C : E-4 02 . ... : ... .. . ... : ... .. . ... : 1-# 09 . ... : ... .. . ...
ROW 2D : ... .. . ... : ... .. . ... : ... .. . ... : ... .. . ... : ... .. . ...
ROW 2E : ... .. . ... : ... .. . ... : ... .. . ... : ... .. . ... : ... .. . ...
ROW 2F : ... .. . ... : ... .. . ... : ... .. . ... : ... .. . ... : ... .. . ...
ROW 30 : C-4 02 . ... : ... .. . ... : ... .. . ... : 1-# 09 . ... : ... .. . ...
ROW 31 : ... .. . ... : ... .. . ... : ... .. . ... : ... .. . ... : ... .. . ...
ROW 32 : ... .. . ... : ... .. . ... : ... .. . ... : ... .. . ... : ... .. . ...
ROW 33 : ... .. . ... : ... .. . ... : ... .. . ... : ... .. . ... : ... .. . ...
ROW 34 : ... .. . ... : ... .. . ... : ... .. . ... : 6-# 09 . ... : ... .. . ...
ROW 35 : ... .. . ... : ... .. . ... : ... .. . ... : ... .. . ... : ... .. . ...
ROW 36 : ... .. . ... : ... .. . ... : ... .. . ... : ... .. . ... : ... .. . ...
ROW 37 : ... .. . ... : ... .. . ... : ... .. . ... : ... .. . ... : ... .. . ...
ROW 38 : ... .. . ... : ... .. . ... : ... .. . ... : 6-# 09 . ... : ... .. . ...
ROW 39 : ... .. . ... : ... .. . ... : ... .. . ... : ... .. . ... : ... .. . ...
ROW 3A : ... .. . ... : ... .. . ... : ... .. . ... : ... .. . ... : ... .. . ...
ROW 3B : ... .. . ... : ... .. . ... : ... .. . ... : ... .. . ... : ... .. . ...
ROW 3C : ... .. . ... : ... .. . ... : ... .. . ... : ... .. . ... : ... .. . ...
ROW 3D : ... .. . ... : ... .. . ... : ... .. . ... : ... .. . ... : ... .. . ...
ROW 3E : ... .. . ... : ... .. . ... : ... .. . ... : ... .. . ... : ... .. . ...
ROW 3F : ... .. . ... : ... .. . ... : ... .. . ... : ... .. . ... : ... .. . ...

TRACK  64   4 150 "Gameplay (default)"
COLUMNS : 1 1 1 1 1

ORDER 00 : 0A 06 01 01 00
ORDER 01 : 0A 06 02 02 00
ORDER 02 : 01 01 01 01 01
ORDER 03 : 02 02 02 01 02
ORDER 04 : 07 08 01 01 05
ORDER 05 : 08 08 02 01 05
ORDER 06 : 09 07 01 01 03
ORDER 07 : 0B 09 02 01 04

PATTERN 00
ROW 00 : C-3 0B . B01 : --- .. . ... : ... .. . ... : 1-# 09 . ... : ... .. . ...
ROW 01 : ... .. . ... : ... .. . ... : ... .. . ... : ... .. . ... : ... .. . ...
ROW 02 : ... .. . ... : ... .. . ... : ... .. . ... : D-# 09 . ... : ... .. . ...
ROW 03 : ... .. . ... : ... .. . ... : ... .. . ... : D-# 09 . ... : ... .. . ...
ROW 04 : E-3 0B . ... : ... .. . ... : ... .. . ... : 6-# 09 . ... : ... .. . ...
ROW 05 : ... .. . ... : ... .. . ... : ... .. . ... : ... .. . ... : ... .. . ...
ROW 06 : F-3 0B . ... : ... .. . ... : ... .. . ... : D-# 09 . ... : ... .. . ...
ROW 07 : ... .. . ... : ... .. . ... : ... .. . ... : D-# 09 . ... : ... .. . ...
ROW 08 : ... .. . ... : ... .. . ... : ... .. . ... : 1-# 09 . ... : ... .. . ...
ROW 09 : ... .. . ... : ... .. . ... : ... .. . ... : ... .. . ... : ... .. . ...
ROW 0A : ... .. . ... : ... .. . ... : ... .. . ... : D-# 09 . ... : ... .. . ...
ROW 0B : ... .. . ... : ... .. . ... : ... .. . ... : D-# 09 . ... : ... .. . ...
ROW 0C : ... .. . ... : ... .. . ... : ... .. . ... : 6-# 09 . ... : ... .. . ...
ROW 0D : ... .. . ... : ... .. . ... : ... .. . ... : ... .. . ... : ... .. . ...
ROW 0E : ... .. . ... : ... .. . ... : ... .. . ... : D-# 09 . ... : ... .. . ...
ROW 0F : ... .. . ... : ... .. . ... : ... .. . ... : D-# 09 . ... : ... .. . ...
ROW 10 : F-3 0B . ... : ... .. . ... : ... .. . ... : 1-# 09 . ... : ... .. . ...
ROW 11 : ... .. . ... : ... .. . ... : ... .. . ... : ... .. . ... : ... .. . ...
ROW 12 : ... .. . ... : ... .. . ... : ... .. . ... : D-# 09 . ... : ... .. . ...
ROW 13 : ... .. . ... : ... .. . ... : ... .. . ... : D-# 09 . ... : ... .. . ...
ROW 14 : E-3 0B . ... : ... .. . ... : ... .. . ... : 6-# 09 . ... : ... .. . ...
ROW 15 : ... .. . ... : ... .. . ... : ... .. . ... : ... .. . ... : ... .. . ...
ROW 16 : D-3 0B . ... : ... .. . ... : ... .. . ... : D-# 09 . ... : ... .. . ...
ROW 17 : ... .. . ... : ... .. . ... : ... .. . ... : D-# 09 . ... : ... .. . ...
ROW 18 : ... .. . ... : ... .. . ... : ... .. . ... : 1-# 09 . ... : ... .. . ...
ROW 19 : ... .. . ... : ... .. . ... : ... .. . ... : ... .. . ... : ... .. . ...
ROW 1A : ... .. . ... : ... .. . ... : ... .. . ... : D-# 09 . ... : ... .. . ...
ROW 1B : ... .. . ... : ... .. . ... : ... .. . ... : D-# 09 . ... : ... .. . ...
ROW 1C : ... .. . ... : ... .. . ... : ... .. . ... : 6-# 09 . ... : ... .. . ...
ROW 1D : ... .. . ... : ... .. . ... : ... .. . ... : ... .. . ... : ... .. . ...
ROW 1E : ... .. . ... : ... .. . ... : ... .. . ... : D-# 09 . ... : ... .. . ...
ROW 1F : ... .. . ... : ... .. . ... : ... .. . ... : D-# 09 . ... : ... .. . ...
ROW 20 : C-3 0B . ... : ... .. . ... : ... .. . ... : 1-# 09 . ... : ... .. . ...
ROW 21 : ... .. . ... : ... .. . ... : ... .. . ... : ... .. . ... : ... .. . ...
ROW 22 : ... .. . ... : ... .. . ... : ... .. . ... : D-# 09 . ... : ... .. . ...
ROW 23 : ... .. . ... : ... .. . ... : ... .. . ... : D-# 09 . ... : ... .. . ...
ROW 24 : E-3 0B . ... : ... .. . ... : ... .. . ... : 6-# 09 . ... : ... .. . ...
ROW 25 : ... .. . ... : ... .. . ... : ... .. . ... : ... .. . ... : ... .. . ...
ROW 26 : F-3 0B . ... : ... .. . ... : ... .. . ... : D-# 09 . ... : ... .. . ...
ROW 27 : ... .. . ... : ... .. . ... : ... .. . ... : D-# 09 . ... : ... .. . ...
ROW 28 : ... .. . ... : ... .. . ... : ... .. . ... : 1-# 09 . ... : ... .. . ...
ROW 29 : ... .. . ... : ... .. . ... : ... .. . ... : ... .. . ... : ... .. . ...
ROW 2A : ... .. . ... : ... .. . ... : ... .. . ... : D-# 09 . ... : ... .. . ...
ROW 2B : ... .. . ... : ... .. . ... : ... .. . ... : D-# 09 . ... : ... .. . ...
ROW 2C : ... .. . ... : ... .. . ... : ... .. . ... : 6-# 09 . ... : ... .. . ...
ROW 2D : ... .. . ... : ... .. . ... : ... .. . ... : ... .. . ... : ... .. . ...
ROW 2E : ... .. . ... : ... .. . ... : ... .. . ... : D-# 09 . ... : ... .. . ...
ROW 2F : ... .. . ... : ... .. . ... : ... .. . ... : D-# 09 . ... : ... .. . ...
ROW 30 : G-3 0B . ... : ... .. . ... : ... .. . ... : 1-# 09 . ... : ... .. . ...
ROW 31 : ... .. . ... : ... .. . ... : ... .. . ... : ... .. . ... : ... .. . ...
ROW 32 : ... .. . ... : ... .. . ... : ... .. . ... : D-# 09 . ... : ... .. . ...
ROW 33 : F-3 0B . ... : ... .. . ... : ... .. . ... : D-# 09 . ... : ... .. . ...
ROW 34 : ... .. . ... : ... .. . ... : ... .. . ... : 6-# 09 . ... : ... .. . ...
ROW 35 : ... .. . ... : ... .. . ... : ... .. . ... : ... .. . ... : ... .. . ...
ROW 36 : E-3 0B . ... : ... .. . ... : ... .. . ... : D-# 09 . ... : ... .. . ...
ROW 37 : ... .. . ... : ... .. . ... : ... .. . ... : D-# 09 . ... : ... .. . ...
ROW 38 : D-3 0B . ... : ... .. . ... : ... .. . ... : 1-# 09 . ... : ... .. . ...
ROW 39 : ... .. . ... : ... .. . ... : ... .. . ... : ... .. . ... : ... .. . ...
ROW 3A : ... .. . ... : ... .. . ... : ... .. . ... : D-# 09 . ... : ... .. . ...
ROW 3B : ... .. . ... : ... .. . ... : ... .. . ... : D-# 09 . ... : ... .. . ...
ROW 3C : ... .. . ... : ... .. . ... : ... .. . ... : 6-# 09 . ... : ... .. . ...
ROW 3D : ... .. . ... : ... .. . ... : ... .. . ... : ... .. . ... : ... .. . ...
ROW 3E : ... .. . ... : ... .. . ... : ... .. . ... : D-# 09 . ... : ... .. . ...
ROW 3F : ... .. . ... : ... .. . ... : ... .. . ... : D-# 09 . ... : ... .. . ...

PATTERN 01
ROW 00 : A-2 08 A ... : ... .. . ... : G-1 07 . ... : 1-# 09 . ... : ... .. . ...
ROW 01 : ... .. . ... : ... .. . ... : ... .. . ... : ... .. . ... : ... .. . ...
ROW 02 : ... .. . ... : ... .. . ... : ... .. . ... : ... .. . ... : ... .. . ...
ROW 03 : ... .. . ... : ... .. . ... : ... .. . ... : ... .. . ... : ... .. . ...
ROW 04 : C-3 08 . ... : ... .. . ... : ... .. . ... : ... .. . ... : ... .. . ...
ROW 05 : ... .. . ... : ... .. . ... : ... .. . ... : ... .. . ... : ... .. . ...
ROW 06 : D-3 08 . ... : ... .. . ... : ... .. . ... : ... .. . ... : ... .. . ...
ROW 07 : ... .. . ... : ... .. . ... : ... .. . ... : ... .. . ... : ... .. . ...
ROW 08 : E-3 08 . ... : ... .. . ... : A-1 07 . ... : 6-# 09 . ... : ... .. . ...
ROW 09 : ... .. . ... : ... .. . ... : ... .. . ... : ... .. . ... : ... .. . ...
ROW 0A : ... .. . ... : ... .. . ... : ... .. . ... : ... .. . ... : ... .. . ...
ROW 0B : ... .. . ... : ... .. . ... : ... .. . ... : ... .. . ... : ... .. . ...
ROW 0C : D-3 08 . ... : ... .. . ... : ... .. . ... : 1-# 09 . ... : ... .. . ...
ROW 0D : ... .. . ... : ... .. . ... : ... .. . ... : ... .. . ... : ... .. . ...
ROW 0E : C-3 08 . ... : ... .. . ... : ... .. . ... : ... .. . ... : ... .. . ...
ROW 0F : ... .. . ... : ... .. . ... : ... .. . ... : ... .. . ... : ... .. . ...
ROW 10 : B-2 08 . ... : ... .. . ... : B-1 07 . ... : 1-# 09 . ... : ... .. . ...
ROW 11 : ... .. . ... : ... .. . ... : ... .. . ... : ... .. . ... : ... .. . ...
ROW 12 : ... .. . ... : ... .. . ... : ... .. . ... : ... .. . ... : ... .. . ...
ROW 13 : ... .. . ... : ... .. . ... : ... .. . ... : ... .. . ... : ... .. . ...
ROW 14 : C-3 08 . ... : ... .. . ... : ... .. . ... : 6-# 09 . ... : ... .. . ...
ROW 15 : ... .. . ... : ... .. . ... : ... .. . ... : ... .. . ... : ... .. . ...
ROW 16 : B-2 08 . ... : ... .. . ... : ... .. . ... : ... .. . ... : ... .. . ...
ROW 17 : ... .. . ... : ... .. . ... : ... .. . ... : ... .. . ... : ... .. . ...
ROW 18 : A-2 08 . ... : ... .. . ... : ... .. . ... : 6-# 09 . ... : ... .. . ...
ROW 19 : ... .. . ... : ... .. . ... : ... .. . ... : ... .. . ... : ... .. . ...
ROW 1A : ... .. . ... : ... .. . ... : ... .. . ... : ... .. . ... : ... .. . ...
ROW 1B : ... .. . ... : ... .. . ... : ... .. . ... : ... .. . ... : ... .. . ...
ROW 1C : ... .. . ... : ... .. . ... : ... .. . ... : ... .. . ... : ... .. . ...
ROW 1D : ... .. . ... : ... .. . ... : ... .. . ... : ... .. . ... : ... .. . ...
ROW 1E : --- .. . ... : ... .. . ... : ... .. . ... : ... .. . ... : ... .. . ...
ROW 1F : ... .. . ... : ... .. . ... : ... .. . ... : ... .. . ... : ... .. . ...
ROW 20 : A-2 08 . ... : ... .. . ... : B-1 07 . ... : 1-# 09 . ... : ... .. . ...
ROW 21 : ... .. . ... : ... .. . ... : ... .. . ... : ... .. . ... : ... .. . ...
ROW 22 : ... .. . ... : ... .. . ... : ... .. . ... : ... .. . ... : ... .. . ...
ROW 23 : ... .. . ... : ... .. . ... : ... .. . ... : ... .. . ... : ... .. . ...
ROW 24 : C-3 08 . ... : ... .. . ... : ... .. . ... : ... .. . ... : ... .. . ...
ROW 25 : ... .. . ... : ... .. . ... : ... .. . ... : ... .. . ... : ... .. . ...
ROW 26 : D-3 08 . ... : ... .. . ... : ... .. . ... : ... .. . ... : ... .. . ...
ROW 27 : ... .. . ... : ... .. . ... : ... .. . ... : ... .. . ... : ... .. . ...
ROW 28 : E-3 08 . ... : ... .. . ... : G-1 07 . ... : 6-# 09 . ... : ... .. . ...
ROW 29 : ... .. . ... : ... .. . ... : ... .. . ... : ... .. . ... : ... .. . ...
ROW 2A : ... .. . ... : ... .. . ... : ... .. . ... : ... .. . ... : ... .. . ...
ROW 2B : ... .. . ... : ... .. . ... : ... .. . ... : ... .. . ... : ... .. . ...
ROW 2C : D-3 08 . ... : ... .. . ... : ... .. . ... : 1-# 09 . ... : ... .. . ...
ROW 2D : ... .. . ... : ... .. . ... : ... .. . ... : ... .. . ... : ... .. . ...
ROW 2E : E-3 08 . ... : ... .. . ... : ... .. . ... : ... .. . ... : ... .. . ...
ROW 2F : ... .. . ... : ... .. . ... : ... .. . ... : ... .. . ... : ... .. . ...
ROW 30 : F-3 08 . ... : ... .. . ... : A-1 07 . ... : 1-# 09 . ... : ... .. . ...
ROW 31 : ... .. . ... : ... .. . ... : ... .. . ... : ... .. . ... : ... .. . ...
ROW 32 : ... .. . ... : ... .. . ... : ... .. . ... : ... .. . ... : ... .. . ...
ROW 33 : ... .. . ... : ... .. . ... : ... .. . ... : ... .. . ... : ... .. . ...
ROW 34 : C-3 08 . ... : ... .. . ... : ... .. . ... : 6-# 09 . ... : ... .. . ...
ROW 35 : ... .. . ... : ... .. . ... : ... .. . ... : ... .. . ... : ... .. . ...
ROW 36 : D-3 08 . ... : ... .. . ... : ... .. . ... : ... .. . ... : ... .. . ...
ROW 37 : ... .. . ... : ... .. . ... : ... .. . ... : ... .. . ... : ... .. . ...
ROW 38 : E-3 08 . ... : ... .. . ... : ... .. . ... : 6-# 09 . ... : ... .. . ...
ROW 39 : ... .. . ... : ... .. . ... : ... .. . ... : ... .. . ... : ... .. . ...
ROW 3A : ... .. . ... : ... .. . ... : ... .. . ... : ... .. . ... : ... .. . ...
ROW 3B : ... .. . ... : ... .. . ... : ... .. . ... : ... .. . ... : ... .. . ...
ROW 3C : ... .. . ... : ... .. . ... : ... .. . ... : ... .. . ... : ... .. . ...
ROW 3D : ... .. . ... : ... .. . ... : ... .. . ... : ... .. . ... : ... .. . ...
ROW 3E : --- .. . ... : ... .. . ... : ... .. . ... : ... .. . ... : ... .. . ...
ROW 3F : ... .. . ... : ... .. . ... : ... .. . ... : ... .. . ... : ... .. . ...

PATTERN 02
ROW 00 : A-2 08 A ... : ... .. . ... : G-1 07 . ... : 1-# 09 . ... : ... .. . ...
ROW 01 : ... .. . ... : ... .. . ... : ... .. . ... : ... .. . ... : ... .. . ...
ROW 02 : ... .. . ... : ... .. . ... : ... .. . ... : ... .. . ... : ... .. . ...
ROW 03 : ... .. . ... : ... .. . ... : ... .. . ... : ... .. . ... : ... .. . ...
ROW 04 : C-3 08 . ... : ... .. . ... : ... .. . ... : ... .. . ... : ... .. . ...
ROW 05 : ... .. . ... : ... .. . ... : ... .. . ... : ... .. . ... : ... .. . ...
ROW 06 : D-3 08 . ... : ... .. . ... : ... .. . ... : ... .. . ... : ... .. . ...
ROW 07 : ... .. . ... : ... .. . ... : ... .. . ... : ... .. . ... : ... .. . ...
ROW 08 : E-3 08 . ... : ... .. . ... : B-1 07 . ... : 6-# 09 . ... : ... .. . ...
ROW 09 : ... .. . ... : ... .. . ... : ... .. . ... : ... .. . ... : ... .. . ...
ROW 0A : ... .. . ... : ... .. . ... : ... .. . ... : ... .. . ... : ... .. . ...
ROW 0B : ... .. . ... : ... .. . ... : ... .. . ... : ... .. . ... : ... .. . ...
ROW 0C : D-3 08 . ... : ... .. . ... : ... .. . ... : 1-# 09 . ... : ... .. . ...
ROW 0D : ... .. . ... : ... .. . ... : ... .. . ... : ... .. . ... : ... .. . ...
ROW 0E : C-3 08 . ... : ... .. . ... : ... .. . ... : ... .. . ... : ... .. . ...
ROW 0F : ... .. . ... : ... .. . ... : ... .. . ... : ... .. . ... : ... .. . ...
ROW 10 : B-2 08 . ... : ... .. . ... : C-2 07 . ... : 1-# 09 . ... : ... .. . ...
ROW 11 : ... .. . ... : ... .. . ... : ... .. . ... : ... .. . ... : ... .. . ...
ROW 12 : ... .. . ... : ... .. . ... : ... .. . ... : ... .. . ... : ... .. . ...
ROW 13 : ... .. . ... : ... .. . ... : ... .. . ... : ... .. . ... : ... .. . ...
ROW 14 : C-3 08 . ... : ... .. . ... : ... .. . ... : 6-# 09 . ... : ... .. . ...
ROW 15 : ... .. . ... : ... .. . ... : ... .. . ... : ... .. . ... : ... .. . ...
ROW 16 : B-2 08 . ... : ... .. . ... : ... .. . ... : ... .. . ... : ... .. . ...
ROW 17 : ... .. . ... : ... .. . ... : ... .. . ... : ... .. . ... : ... .. . ...
ROW 18 : A-2 08 . ... : ... .. . ... : D-2 07 . ... : 6-# 09 . ... : ... .. . ...
ROW 19 : ... .. . ... : ... .. . ... : ... .. . ... : ... .. . ... : ... .. . ...
ROW 1A : ... .. . ... : ... .. . ... : ... .. . ... : ... .. . ... : ... .. . ...
ROW 1B : ... .. . ... : ... .. . ... : ... .. . ... : ... .. . ... : ... .. . ...
ROW 1C : ... .. . ... : ... .. . ... : ... .. . ... : ... .. . ... : ... .. . ...
ROW 1D : ... .. . ... : ... .. . ... : ... .. . ... : ... .. . ... : ... .. . ...
ROW 1E : --- .. . ... : ... .. . ... : ... .. . ... : ... .. . ... : ... .. . ...
ROW 1F : ... .. . ... : ... .. . ... : ... .. . ... : ... .. . ... : ... .. . ...
ROW 20 : A-2 08 . ... : ... .. . ... : C-2 07 . ... : 1-# 09 . ... : ... .. . ...
ROW 21 : ... .. . ... : ... .. . ... : ... .. . ... : ... .. . ... : ... .. . ...
ROW 22 : ... .. . ... : ... .. . ... : ... .. . ... : ... .. . ... : ... .. . ...
ROW 23 : ... .. . ... : ... .. . ... : ... .. . ... : ... .. . ... : ... .. . ...
ROW 24 : C-3 08 . ... : ... .. . ... : ... .. . ... : ... .. . ... : ... .. . ...
ROW 25 : ... .. . ... : ... .. . ... : ... .. . ... : ... .. . ... : ... .. . ...
ROW 26 : D-3 08 . ... : ... .. . ... : ... .. . ... : ... .. . ... : ... .. . ...
ROW 27 : ... .. . ... : ... .. . ... : ... .. . ... : ... .. . ... : ... .. . ...
ROW 28 : E-3 08 . ... : ... .. . ... : B-1 07 . ... : 6-# 09 . ... : ... .. . ...
ROW 29 : ... .. . ... : ... .. . ... : ... .. . ... : ... .. . ... : ... .. . ...
ROW 2A : ... .. . ... : ... .. . ... : ... .. . ... : ... .. . ... : ... .. . ...
ROW 2B : ... .. . ... : ... .. . ... : ... .. . ... : ... .. . ... : ... .. . ...
ROW 2C : D-3 08 . ... : ... .. . ... : ... .. . ... : 1-# 09 . ... : ... .. . ...
ROW 2D : ... .. . ... : ... .. . ... : ... .. . ... : ... .. . ... : ... .. . ...
ROW 2E : E-3 08 . ... : ... .. . ... : ... .. . ... : ... .. . ... : ... .. . ...
ROW 2F : ... .. . ... : ... .. . ... : ... .. . ... : ... .. . ... : ... .. . ...
ROW 30 : G-2 08 . ... : ... .. . ... : A-1 07 . ... : 1-# 09 . ... : ... .. . ...
ROW 31 : ... .. . ... : ... .. . ... : ... .. . ... : ... .. . ... : ... .. . ...
ROW 32 : ... .. . ... : ... .. . ... : ... .. . ... : ... .. . ... : ... .. . ...
ROW 33 : ... .. . ... : ... .. . ... : ... .. . ... : ... .. . ... : ... .. . ...
ROW 34 : B-2 08 . ... : ... .. . ... : ... .. . ... : 6-# 09 . ... : ... .. . ...
ROW 35 : ... .. . ... : ... .. . ... : ... .. . ... : ... .. . ... : ... .. . ...
ROW 36 : ... .. . ... : ... .. . ... : ... .. . ... : ... .. . ... : ... .. . ...
ROW 37 : ... .. . ... : ... .. . ... : ... .. . ... : ... .. . ... : ... .. . ...
ROW 38 : A-2 08 . ... : ... .. . ... : ... .. . ... : 6-# 09 . ... : ... .. . ...
ROW 39 : ... .. . ... : ... .. . ... : ... .. . ... : ... .. . ... : ... .. . ...
ROW 3A : ... .. . ... : ... .. . ... : ... .. . ... : ... .. . ... : ... .. . ...
ROW 3B : ... .. . ... : ... .. . ... : ... .. . ... : ... .. . ... : ... .. . ...
ROW 3C : ... .. . ... : ... .. . ... : ... .. . ... : ... .. . ... : ... .. . ...
ROW 3D : ... .. . ... : ... .. . ... : ... .. . ... : ... .. . ... : ... .. . ...
ROW 3E : --- .. . ... : ... .. . ... : ... .. . ... : ... .. . ... : ... .. . ...
ROW 3F : ... .. . ... : ... .. . ... : ... .. . ... : ... .. . ... : ... .. . ...

PATTERN 03
ROW 00 : C-3 08 . ... : C-2 0B . ... : C-1 0C . ... : 1-# 09 . ... : ... .. . ...
ROW 01 : ... .. . ... : ... .. . ... : ... .. . ... : ... .. . ... : ... .. . ...
ROW 02 : ... .. . ... : ... .. . ... : --- .. . ... : D-# 09 . ... : ... .. . ...
ROW 03 : ... .. . ... : ... .. . ... : ... .. . ... : D-# 09 . ... : ... .. . ...
ROW 04 : E-3 08 . ... : E-2 0B . ... : E-1 0C . ... : 6-# 09 . ... : ... .. . ...
ROW 05 : ... .. . ... : ... .. . ... : ... .. . ... : ... .. . ... : ... .. . ...
ROW 06 : F-3 08 . ... : F-2 0B . ... : --- .. . ... : D-# 09 . ... : ... .. . ...
ROW 07 : ... .. . ... : ... .. . ... : ... .. . ... : D-# 09 . ... : ... .. . ...
ROW 08 : ... .. . ... : ... .. . ... : C-1 0C . ... : 1-# 09 . ... : ... .. . ...
ROW 09 : ... .. . ... : ... .. . ... : ... .. . ... : ... .. . ... : ... .. . ...
ROW 0A : ... .. . ... : ... .. . ... : --- .. . ... : D-# 09 . ... : ... .. . ...
ROW 0B : ... .. . ... : ... .. . ... : ... .. . ... : D-# 09 . ... : ... .. . ...
ROW 0C : ... .. . ... : ... .. . ... : E-1 0C . ... : 6-# 09 . ... : ... .. . ...
ROW 0D : ... .. . ... : ... .. . ... : ... .. . ... : ... .. . ... : ... .. . ...
ROW 0E : ... .. . ... : ... .. . ... : --- .. . ... : D-# 09 . ... : ... .. . ...
ROW 0F : ... .. . ... : ... .. . ... : ... .. . ... : D-# 09 . ... : ... .. . ...
ROW 10 : F-3 08 . ... : F-2 0B . ... : C-1 0C . ... : 1-# 09 . ... : ... .. . ...
ROW 11 : ... .. . ... : ... .. . ... : ... .. . ... : ... .. . ... : ... .. . ...
ROW 12 : ... .. . ... : ... .. . ... : --- .. . ... : D-# 09 . ... : ... .. . ...
ROW 13 : ... .. . ... : ... .. . ... : ... .. . ... : D-# 09 . ... : ... .. . ...
ROW 14 : E-3 08 . ... : E-2 0B . ... : F-1 0C . ... : 6-# 09 . ... : ... .. . ...
ROW 15 : ... .. . ... : ... .. . ... : ... .. . ... : ... .. . ... : ... .. . ...
ROW 16 : D-3 08 . ... : D-2 0B . ... : --- .. . ... : D-# 09 . ... : ... .. . ...
ROW 17 : ... .. . ... : ... .. . ... : ... .. . ... : D-# 09 . ... : ... .. . ...
ROW 18 : ... .. . ... : ... .. . ... : E-1 0C . ... : 1-# 09 . ... : ... .. . ...
ROW 19 : ... .. . ... : ... .. . ... : ... .. . ... : ... .. . ... : ... .. . ...
ROW 1A : ... .. . ... : ... .. . ... : --- .. . ... : D-# 09 . ... : ... .. . ...
ROW 1B : ... .. . ... : ... .. . ... : ... .. . ... : D-# 09 . ... : ... .. . ...
ROW 1C : ... .. . ... : ... .. . ... : D-1 0C . ... : 6-# 09 . ... : ... .. . ...
ROW 1D : ... .. . ... : ... .. . ... : ... .. . ... : ... .. . ... : ... .. . ...
ROW 1E : ... .. . ... : ... .. . ... : --- .. . ... : D-# 09 . ... : ... .. . ...
ROW 1F : ... .. . ... : ... .. . ... : ... .. . ... : D-# 09 . ... : ... .. . ...
ROW 20 : C-3 08 . ... : C-2 0B . ... : C-1 0C . ... : 1-# 09 . ... : ... .. . ...
ROW 21 : ... .. . ... : ... .. . ... : ... .. . ... : ... .. . ... : ... .. . ...
ROW 22 : ... .. . ... : ... .. . ... : --- .. . ... : D-# 09 . ... : ... .. . ...
ROW 23 : ... .. . ... : ... .. . ... : ... .. . ... : D-# 09 . ... : ... .. . ...
ROW 24 : E-3 08 . ... : E-2 0B . ... : E-1 0C . ... : 6-# 09 . ... : ... .. . ...
ROW 25 : ... .. . ... : ... .. . ... : ... .. . ... : ... .. . ... : ... .. . ...
ROW 26 : F-3 08 . ... : F-2 0B . ... : --- .. . ... : D-# 09 . ... : ... .. . ...
ROW 27 : ... .. . ... : ... .. . ... : ... .. . ... : D-# 09 . ... : ... .. . ...
ROW 28 : ... .. . ... : ... .. . ... : C-1 0C . ... : 1-# 09 . ... : ... .. . ...
ROW 29 : ... .. . ... : ... .. . ... : ... .. . ... : ... .. . ... : ... .. . ...
ROW 2A : ... .. . ... : ... .. . ... : --- .. . ... : D-# 09 . ... : ... .. . ...
ROW 2B : ... .. . ... : ... .. . ... : ... .. . ... : D-# 09 . ... : ... .. . ...
ROW 2C : ... .. . ... : ... .. . ... : E-1 0C . ... : 6-# 09 . ... : ... .. . ...
ROW 2D : ... .. . ... : ... .. . ... : ... .. . ... : ... .. . ... : ... .. . ...
ROW 2E : ... .. . ... : ... .. . ... : --- .. . ... : D-# 09 . ... : ... .. . ...
ROW 2F : ... .. . ... : ... .. . ... : ... .. . ... : D-# 09 . ... : ... .. . ...
ROW 30 : G-3 08 . ... : G-2 0B . ... : B-0 0C . ... : 1-# 09 . ... : ... .. . ...
ROW 31 : ... .. . ... : ... .. . ... : ... .. . ... : ... .. . ... : ... .. . ...
ROW 32 : ... .. . ... : ... .. . ... : --- .. . ... : D-# 09 . ... : ... .. . ...
ROW 33 : F-3 08 . ... : F-2 0B . ... : ... .. . ... : D-# 09 . ... : ... .. . ...
ROW 34 : ... .. . ... : ... .. . ... : D-1 0C . ... : 6-# 09 . ... : ... .. . ...
ROW 35 : ... .. . ... : ... .. . ... : ... .. . ... : ... .. . ... : ... .. . ...
ROW 36 : E-3 08 . ... : E-2 0B . ... : --- .. . ... : D-# 09 . ... : ... .. . ...
ROW 37 : ... .. . ... : ... .. . ... : ... .. . ... : D-# 09 . ... : ... .. . ...
ROW 38 : D-3 08 . ... : D-2 0B . ... : C-1 0C . ... : 1-# 09 . ... : ... .. . ...
ROW 39 : ... .. . ... : ... .. . ... : ... .. . ... : ... .. . ... : ... .. . ...
ROW 3A : ... .. . ... : ... .. . ... : ... .. . ... : D-# 09 . ... : ... .. . ...
ROW 3B : ... .. . ... : ... .. . ... : ... .. . ... : D-# 09 . ... : ... .. . ...
ROW 3C : ... .. . ... : ... .. . ... : ... .. . ... : 6-# 09 . ... : ... .. . ...
ROW 3D : ... .. . ... : ... .. . ... : ... .. . ... : ... .. . ... : ... .. . ...
ROW 3E : ... .. . ... : ... .. . ... : --- .. . ... : D-# 09 . ... : ... .. . ...
ROW 3F : ... .. . ... : ... .. . ... : ... .. . ... : D-# 09 . ... : ... .. . ...

PATTERN 04
ROW 00 : ... .. . B01 : C-2 0B . ... : C-2 0C . ... : 1-# 09 . ... : ... .. . ...
ROW 01 : ... .. . ... : ... .. . ... : ... .. . ... : ... .. . ... : ... .. . ...
ROW 02 : ... .. . ... : ... .. . ... : --- .. . ... : D-# 09 . ... : ... .. . ...
ROW 03 : ... .. . ... : ... .. . ... : ... .. . ... : D-# 09 . ... : ... .. . ...
ROW 04 : E-2 02 . ... : E-2 0B . ... : E-2 0C . ... : 6-# 09 . ... : ... .. . ...
ROW 05 : F-2 02 . ... : ... .. . ... : ... .. . ... : ... .. . ... : ... .. . ...
ROW 06 : G-2 02 . ... : F-2 0B . ... : --- .. . ... : D-# 09 . ... : ... .. . ...
ROW 07 : ... .. . ... : ... .. . ... : ... .. . ... : D-# 09 . ... : ... .. . ...
ROW 08 : ... .. . ... : ... .. . ... : C-2 0C . ... : 1-# 09 . ... : ... .. . ...
ROW 09 : ... .. . ... : ... .. . ... : ... .. . ... : ... .. . ... : ... .. . ...
ROW 0A : ... .. . ... : ... .. . ... : --- .. . ... : D-# 09 . ... : ... .. . ...
ROW 0B : ... .. . ... : ... .. . ... : ... .. . ... : D-# 09 . ... : ... .. . ...
ROW 0C : F-2 02 . ... : ... .. . ... : E-2 0C . ... : 6-# 09 . ... : ... .. . ...
ROW 0D : G-2 02 . ... : ... .. . ... : ... .. . ... : ... .. . ... : ... .. . ...
ROW 0E : A-2 02 . ... : ... .. . ... : --- .. . ... : D-# 09 . ... : ... .. . ...
ROW 0F : ... .. . ... : ... .. . ... : ... .. . ... : D-# 09 . ... : ... .. . ...
ROW 10 : ... .. . ... : F-2 0B . ... : C-2 0C . ... : 1-# 09 . ... : ... .. . ...
ROW 11 : ... .. . ... : ... .. . ... : ... .. . ... : ... .. . ... : ... .. . ...
ROW 12 : ... .. . ... : ... .. . ... : --- .. . ... : D-# 09 . ... : ... .. . ...
ROW 13 : ... .. . ... : ... .. . ... : ... .. . ... : D-# 09 . ... : ... .. . ...
ROW 14 : G-2 02 . ... : E-2 0B . ... : F-2 0C . ... : 6-# 09 . ... : ... .. . ...
ROW 15 : F-2 02 . ... : ... .. . ... : ... .. . ... : ... .. . ... : ... .. . ...
ROW 16 : E-2 02 . ... : D-2 0B . ... : --- .. . ... : D-# 09 . ... : ... .. . ...
ROW 17 : ... .. . ... : ... .. . ... : ... .. . ... : D-# 09 . ... : ... .. . ...
ROW 18 : ... .. . ... : ... .. . ... : E-2 0C . ... : 1-# 09 . ... : ... .. . ...
ROW 19 : ... .. . ... : ... .. . ... : ... .. . ... : ... .. . ... : ... .. . ...
ROW 1A : ... .. . ... : ... .. . ... : --- .. . ... : D-# 09 . ... : ... .. . ...
ROW 1B : ... .. . ... : ... .. . ... : ... .. . ... : D-# 09 . ... : ... .. . ...
ROW 1C : D-2 02 . ... : ... .. . ... : D-2 0C . ... : 6-# 09 . ... : ... .. . ...
ROW 1D : ... .. . ... : ... .. . ... : ... .. . ... : ... .. . ... : ... .. . ...
ROW 1E : ... .. . ... : ... .. . ... : --- .. . ... : D-# 09 . ... : ... .. . ...
ROW 1F : ... .. . ... : ... .. . ... : ... .. . ... : D-# 09 . ... : ... .. . ...
ROW 20 : ... .. . ... : C-2 0B . ... : C-2 0C . ... : 1-# 09 . ... : ... .. . ...
ROW 21 : ... .. . ... : ... .. . ... : ... .. . ... : ... .. . ... : ... .. . ...
ROW 22 : ... .. . ... : ... .. . ... : --- .. . ... : D-# 09 . ... : ... .. . ...
ROW 23 : ... .. . ... : ... .. . ... : ... .. . ... : D-# 09 . ... : ... .. . ...
ROW 24 : E-1 02 . ... : E-2 0B . ... : E-2 0C . ... : 6-# 09 . ... : ... .. . ...
ROW 25 : F-1 02 . ... : ... .. . ... : ... .. . ... : ... .. . ... : ... .. . ...
ROW 26 : G-1 02 . ... : F-2 0B . ... : --- .. . ... : D-# 09 . ... : ... .. . ...
ROW 27 : ... .. . ... : ... .. . ... : ... .. . ... : D-# 09 . ... : ... .. . ...
ROW 28 : ... .. . ... : ... .. . ... : C-2 0C . ... : 1-# 09 . ... : ... .. . ...
ROW 29 : ... .. . ... : ... .. . ... : ... .. . ... : ... .. . ... : ... .. . ...
ROW 2A : ... .. . ... : ... .. . ... : --- .. . ... : D-# 09 . ... : ... .. . ...
ROW 2B : ... .. . ... : ... .. . ... : ... .. . ... : D-# 09 . ... : ... .. . ...
ROW 2C : F-1 02 . ... : ... .. . ... : E-2 0C . ... : 6-# 09 . ... : ... .. . ...
ROW 2D : G-1 02 . ... : ... .. . ... : ... .. . ... : ... .. . ... : ... .. . ...
ROW 2E : A-1 02 . ... : ... .. . ... : --- .. . ... : D-# 09 . ... : ... .. . ...
ROW 2F : ... .. . ... : ... .. . ... : ... .. . ... : D-# 09 . ... : ... .. . ...
ROW 30 : ... .. . ... : G-2 0B . ... : B-1 0C . ... : 1-# 09 . ... : ... .. . ...
ROW 31 : ... .. . ... : ... .. . ... : ... .. . ... : ... .. . ... : ... .. . ...
ROW 32 : ... .. . ... : ... .. . ... : --- .. . ... : D-# 09 . ... : ... .. . ...
ROW 33 : ... .. . ... : F-2 0B . ... : ... .. . ... : D-# 09 . ... : ... .. . ...
ROW 34 : F-1 02 . ... : ... .. . ... : D-2 0C . ... : 6-# 09 . ... : ... .. . ...
ROW 35 : E-1 02 . ... : ... .. . ... : ... .. . ... : ... .. . ... : ... .. . ...
ROW 36 : D-1 02 . ... : E-2 0B . ... : --- .. . ... : D-# 09 . ... : ... .. . ...
ROW 37 : ... .. . ... : ... .. . ... : ... .. . ... : D-# 09 . ... : ... .. . ...
ROW 38 : ... .. . ... : D-2 0B . ... : C-2 0C . ... : 1-# 09 . ... : ... .. . ...
ROW 39 : ... .. . ... : ... .. . ... : ... .. . ... : ... .. . ... : ... .. . ...
ROW 3A : ... .. . ... : ... .. . ... : ... .. . ... : D-# 09 . ... : ... .. . ...
ROW 3B : ... .. . ... : ... .. . ... : ... .. . ... : D-# 09 . ... : ... .. . ...
ROW 3C : --- .. . ... : ... .. . ... : ... .. . ... : 6-# 09 . ... : ... .. . ...
ROW 3D : ... .. . ... : ... .. . ... : ... .. . ... : ... .. . ... : ... .. . ...
ROW 3E : ... .. . ... : ... .. . ... : --- .. . ... : D-# 09 . ... : ... .. . ...
ROW 3F : ... .. . ... : ... .. . ... : ... .. . ... : D-# 09 . ... : ... .. . ...

PATTERN 05
ROW 00 : C-3 02 . ... : C-2 00 . ... : C-2 0C . ... : 1-# 09 . ... : ... .. . ...
ROW 01 : ... .. . ... : ... .. . ... : ... .. . ... : ... .. . ... : ... .. . ...
ROW 02 : ... .. . ... : ... .. . ... : --- .. . ... : D-# 09 . ... : ... .. . ...
ROW 03 : ... .. . ... : ... .. . ... : ... .. . ... : D-# 09 . ... : ... .. . ...
ROW 04 : E-2 02 . ... : E-2 00 . ... : E-2 0C . ... : 6-# 09 . ... : ... .. . ...
ROW 05 : F-2 02 . ... : ... .. . ... : ... .. . ... : ... .. . ... : ... .. . ...
ROW 06 : G-2 02 . ... : F-2 00 . ... : --- .. . ... : D-# 09 . ... : ... .. . ...
ROW 07 : ... .. . ... : ... .. . ... : ... .. . ... : D-# 09 . ... : ... .. . ...
ROW 08 : ... .. . ... : ... .. . ... : C-2 0C . ... : 1-# 09 . ... : ... .. . ...
ROW 09 : ... .. . ... : ... .. . ... : ... .. . ... : ... .. . ... : ... .. . ...
ROW 0A : ... .. . ... : ... .. . ... : --- .. . ... : D-# 09 . ... : ... .. . ...
ROW 0B : ... .. . ... : ... .. . ... : ... .. . ... : D-# 09 . ... : ... .. . ...
ROW 0C : F-2 02 . ... : ... .. . ... : E-2 0C . ... : 6-# 09 . ... : ... .. . ...
ROW 0D : G-2 02 . ... : ... .. . ... : ... .. . ... : ... .. . ... : ... .. . ...
ROW 0E : A-2 02 . ... : ... .. . ... : --- .. . ... : D-# 09 . ... : ... .. . ...
ROW 0F : ... .. . ... : ... .. . ... : ... .. . ... : D-# 09 . ... : ... .. . ...
ROW 10 : ... .. . ... : F-2 00 . ... : C-2 0C . ... : 1-# 09 . ... : ... .. . ...
ROW 11 : ... .. . ... : ... .. . ... : ... .. . ... : ... .. . ... : ... .. . ...
ROW 12 : ... .. . ... : ... .. . ... : --- .. . ... : D-# 09 . ... : ... .. . ...
ROW 13 : ... .. . ... : ... .. . ... : ... .. . ... : D-# 09 . ... : ... .. . ...
ROW 14 : G-2 02 . ... : E-2 00 . ... : F-2 0C . ... : 6-# 09 . ... : ... .. . ...
ROW 15 : F-2 02 . ... : ... .. . ... : ... .. . ... : ... .. . ... : ... .. . ...
ROW 16 : E-2 02 . ... : D-2 00 . ... : --- .. . ... : D-# 09 . ... : ... .. . ...
ROW 17 : ... .. . ... : ... .. . ... : ... .. . ... : D-# 09 . ... : ... .. . ...
ROW 18 : ... .. . ... : ... .. . ... : E-2 0C . ... : 1-# 09 . ... : ... .. . ...
ROW 19 : ... .. . ... : ... .. . ... : ... .. . ... : ... .. . ... : ... .. . ...
ROW 1A : ... .. . ... : ... .. . ... : --- .. . ... : D-# 09 . ... : ... .. . ...
ROW 1B : ... .. . ... : ... .. . ... : ... .. . ... : D-# 09 . ... : ... .. . ...
ROW 1C : D-2 02 . ... : ... .. . ... : D-2 0C . ... : 6-# 09 . ... : ... .. . ...
ROW 1D : ... .. . ... : ... .. . ... : ... .. . ... : ... .. . ... : ... .. . ...
ROW 1E : ... .. . ... : ... .. . ... : --- .. . ... : D-# 09 . ... : ... .. . ...
ROW 1F : ... .. . ... : ... .. . ... : ... .. . ... : D-# 09 . ... : ... .. . ...
ROW 20 : C-2 02 . ... : C-2 00 . ... : C-2 0C . ... : 1-# 09 . ... : ... .. . ...
ROW 21 : ... .. . ... : ... .. . ... : ... .. . ... : ... .. . ... : ... .. . ...
ROW 22 : ... .. . ... : ... .. . ... : --- .. . ... : D-# 09 . ... : ... .. . ...
ROW 23 : ... .. . ... : ... .. . ... : ... .. . ... : D-# 09 . ... : ... .. . ...
ROW 24 : E-1 02 . ... : E-2 00 . ... : E-2 0C . ... : 6-# 09 . ... : ... .. . ...
ROW 25 : F-1 02 . ... : ... .. . ... : ... .. . ... : ... .. . ... : ... .. . ...
ROW 26 : G-1 02 . ... : F-2 00 . ... : --- .. . ... : D-# 09 . ... : ... .. . ...
ROW 27 : ... .. . ... : ... .. . ... : ... .. . ... : D-# 09 . ... : ... .. . ...
ROW 28 : ... .. . ... : ... .. . ... : C-2 0C . ... : 1-# 09 . ... : ... .. . ...
ROW 29 : ... .. . ... : ... .. . ... : ... .. . ... : ... .. . ... : ... .. . ...
ROW 2A : ... .. . ... : ... .. . ... : --- .. . ... : D-# 09 . ... : ... .. . ...
ROW 2B : ... .. . ... : ... .. . ... : ... .. . ... : D-# 09 . ... : ... .. . ...
ROW 2C : F-1 02 . ... : ... .. . ... : E-2 0C . ... : 6-# 09 . ... : ... .. . ...
ROW 2D : G-1 02 . ... : ... .. . ... : ... .. . ... : ... .. . ... : ... .. . ...
ROW 2E : A-1 02 . ... : ... .. . ... : --- .. . ... : D-# 09 . ... : ... .. . ...
ROW 2F : ... .. . ... : ... .. . ... : ... .. . ... : D-# 09 . ... : ... .. . ...
ROW 30 : ... .. . ... : G-2 00 . ... : B-1 0C . ... : 1-# 09 . ... : ... .. . ...
ROW 31 : ... .. . ... : ... .. . ... : ... .. . ... : ... .. . ... : ... .. . ...
ROW 32 : ... .. . ... : ... .. . ... : --- .. . ... : D-# 09 . ... : ... .. . ...
ROW 33 : ... .. . ... : F-2 00 . ... : ... .. . ... : D-# 09 . ... : ... .. . ...
ROW 34 : F-1 02 . ... : ... .. . ... : D-2 0C . ... : 6-# 09 . ... : ... .. . ...
ROW 35 : E-1 02 . ... : ... .. . ... : ... .. . ... : ... .. . ... : ... .. . ...
ROW 36 : D-1 02 . ... : E-2 00 . ... : --- .. . ... : D-# 09 . ... : ... .. . ...
ROW 37 : ... .. . ... : ... .. . ... : ... .. . ... : D-# 09 . ... : ... .. . ...
ROW 38 : ... .. . ... : D-2 00 . ... : C-2 0C . ... : 1-# 09 . ... : ... .. . ...
ROW 39 : ... .. . ... : ... .. . ... : ... .. . ... : ... .. . ... : ... .. . ...
ROW 3A : ... .. . ... : ... .. . ... : ... .. . ... : D-# 09 . ... : ... .. . ...
ROW 3B : ... .. . ... : ... .. . ... : ... .. . ... : D-# 09 . ... : ... .. . ...
ROW 3C : --- .. . ... : ... .. . ... : ... .. . ... : 6-# 09 . ... : ... .. . ...
ROW 3D : ... .. . ... : ... .. . ... : ... .. . ... : ... .. . ... : ... .. . ...
ROW 3E : ... .. . ... : ... .. . ... : --- .. . ... : D-# 09 . ... : ... .. . ...
ROW 3F : ... .. . B01 : ... .. . ... : ... .. . ... : D-# 09 . ... : ... .. . ...

PATTERN 06
ROW 00 : C-3 00 . ... : ... .. . ... : C-2 0C . ... : 1-# 09 . ... : ... .. . ...
ROW 01 : ... .. . ... : ... .. . ... : ... .. . ... : ... .. . ... : ... .. . ...
ROW 02 : E-3 00 . ... : ... .. . ... : --- .. . ... : D-# 09 . ... : ... .. . ...
ROW 03 : ... .. . ... : ... .. . ... : ... .. . ... : D-# 09 . ... : ... .. . ...
ROW 04 : C-3 00 . ... : ... .. . ... : E-2 0C . ... : 6-# 09 . ... : ... .. . ...
ROW 05 : ... .. . ... : ... .. . ... : ... .. . ... : ... .. . ... : ... .. . ...
ROW 06 : E-3 00 . ... : ... .. . ... : --- .. . ... : D-# 09 . ... : ... .. . ...
ROW 07 : ... .. . ... : ... .. . ... : ... .. . ... : D-# 09 . ... : ... .. . ...
ROW 08 : C-3 00 . ... : ... .. . ... : C-2 0C . ... : 1-# 09 . ... : ... .. . ...
ROW 09 : ... .. . ... : ... .. . ... : ... .. . ... : ... .. . ... : ... .. . ...
ROW 0A : E-3 00 . ... : ... .. . ... : --- .. . ... : D-# 09 . ... : ... .. . ...
ROW 0B : ... .. . ... : ... .. . ... : ... .. . ... : D-# 09 . ... : ... .. . ...
ROW 0C : C-3 00 . ... : ... .. . ... : E-2 0C . ... : 6-# 09 . ... : ... .. . ...
ROW 0D : ... .. . ... : ... .. . ... : ... .. . ... : ... .. . ... : ... .. . ...
ROW 0E : E-3 00 . ... : ... .. . ... : --- .. . ... : D-# 09 . ... : ... .. . ...
ROW 0F : ... .. . ... : ... .. . ... : ... .. . ... : D-# 09 . ... : ... .. . ...
ROW 10 : D-3 00 . ... : ... .. . ... : C-2 0C . ... : 1-# 09 . ... : ... .. . ...
ROW 11 : ... .. . ... : ... .. . ... : ... .. . ... : ... .. . ... : ... .. . ...
ROW 12 : F-3 00 . ... : ... .. . ... : --- .. . ... : D-# 09 . ... : ... .. . ...
ROW 13 : ... .. . ... : ... .. . ... : ... .. . ... : D-# 09 . ... : ... .. . ...
ROW 14 : D-3 00 . ... : ... .. . ... : F-2 0C . ... : 6-# 09 . ... : ... .. . ...
ROW 15 : ... .. . ... : ... .. . ... : ... .. . ... : ... .. . ... : ... .. . ...
ROW 16 : F-3 00 . ... : ... .. . ... : --- .. . ... : D-# 09 . ... : ... .. . ...
ROW 17 : ... .. . ... : ... .. . ... : ... .. . ... : D-# 09 . ... : ... .. . ...
ROW 18 : D-3 00 . ... : ... .. . ... : E-2 0C . ... : 1-# 09 . ... : ... .. . ...
ROW 19 : ... .. . ... : ... .. . ... : ... .. . ... : ... .. . ... : ... .. . ...
ROW 1A : F-3 00 . ... : ... .. . ... : --- .. . ... : D-# 09 . ... : ... .. . ...
ROW 1B : ... .. . ... : ... .. . ... : ... .. . ... : D-# 09 . ... : ... .. . ...
ROW 1C : D-3 00 . ... : ... .. . ... : D-2 0C . ... : 6-# 09 . ... : ... .. . ...
ROW 1D : ... .. . ... : ... .. . ... : ... .. . ... : ... .. . ... : ... .. . ...
ROW 1E : F-3 00 . ... : ... .. . ... : --- .. . ... : D-# 09 . ... : ... .. . ...
ROW 1F : ... .. . ... : ... .. . ... : ... .. . ... : D-# 09 . ... : ... .. . ...
ROW 20 : C-3 00 . ... : ... .. . ... : C-2 0C . ... : 1-# 09 . ... : ... .. . ...
ROW 21 : ... .. . ... : ... .. . ... : ... .. . ... : ... .. . ... : ... .. . ...
ROW 22 : E-3 00 . ... : ... .. . ... : --- .. . ... : D-# 09 . ... : ... .. . ...
ROW 23 : ... .. . ... : ... .. . ... : ... .. . ... : D-# 09 . ... : ... .. . ...
ROW 24 : C-3 00 . ... : ... .. . ... : E-2 0C . ... : 6-# 09 . ... : ... .. . ...
ROW 25 : ... .. . ... : ... .. . ... : ... .. . ... : ... .. . ... : ... .. . ...
ROW 26 : E-3 00 . ... : ... .. . ... : --- .. . ... : D-# 09 . ... : ... .. . ...
ROW 27 : ... .. . ... : ... .. . ... : ... .. . ... : D-# 09 . ... : ... .. . ...
ROW 28 : C-3 00 . ... : ... .. . ... : C-2 0C . ... : 1-# 09 . ... : ... .. . ...
ROW 29 : ... .. . ... : ... .. . ... : ... .. . ... : ... .. . ... : ... .. . ...
ROW 2A : E-3 00 . ... : ... .. . ... : --- .. . ... : D-# 09 . ... : ... .. . ...
ROW 2B : ... .. . ... : ... .. . ... : ... .. . ... : D-# 09 . ... : ... .. . ...
ROW 2C : C-3 00 . ... : ... .. . ... : E-2 0C . ... : 6-# 09 . ... : ... .. . ...
ROW 2D : ... .. . ... : ... .. . ... : ... .. . ... : ... .. . ... : ... .. . ...
ROW 2E : E-3 00 . ... : ... .. . ... : --- .. . ... : D-# 09 . ... : ... .. . ...
ROW 2F : ... .. . ... : ... .. . ... : ... .. . ... : D-# 09 . ... : ... .. . ...
ROW 30 : B-2 00 . ... : ... .. . ... : B-1 0C . ... : 1-# 09 . ... : ... .. . ...
ROW 31 : ... .. . ... : ... .. . ... : ... .. . ... : ... .. . ... : ... .. . ...
ROW 32 : D-3 00 . ... : ... .. . ... : --- .. . ... : D-# 09 . ... : ... .. . ...
ROW 33 : ... .. . ... : ... .. . ... : ... .. . ... : D-# 09 . ... : ... .. . ...
ROW 34 : B-2 00 . ... : ... .. . ... : D-2 0C . ... : 6-# 09 . ... : ... .. . ...
ROW 35 : ... .. . ... : ... .. . ... : ... .. . ... : ... .. . ... : ... .. . ...
ROW 36 : D-3 00 . ... : ... .. . ... : --- .. . ... : D-# 09 . ... : ... .. . ...
ROW 37 : ... .. . ... : ... .. . ... : ... .. . ... : D-# 09 . ... : ... .. . ...
ROW 38 : C-3 00 . ... : ... .. . ... : C-2 0C . ... : 1-# 09 . ... : ... .. . ...
ROW 39 : ... .. . ... : ... .. . ... : ... .. . ... : ... .. . ... : ... .. . ...
ROW 3A : ... .. . ... : ... .. . ... : ... .. . ... : D-# 09 . ... : ... .. . ...
ROW 3B : ... .. . ... : ... .. . ... : ... .. . ... : D-# 09 . ... : ... .. . ...
ROW 3C : ... .. . ... : ... .. . ... : ... .. . ... : 6-# 09 . ... : ... .. . ...
ROW 3D : ... .. . ... : ... .. . ... : ... .. . ... : ... .. . ... : ... .. . ...
ROW 3E : ... .. . ... : ... .. . ... : --- .. . ... : D-# 09 . ... : ... .. . ...
ROW 3F : ... .. . B00 : ... .. . ... : ... .. . ... : D-# 09 . ... : ... .. . ...

PATTERN 07
ROW 00 : A-2 08 A ... : ... .. . ... : ... .. . ... : ... .. . ... : ... .. . ...
ROW 01 : ... .. . ... : ... .. . ... : ... .. . ... : ... .. . ... : ... .. . ...
ROW 02 : ... .. . ... : ... .. . ... : ... .. . ... : ... .. . ... : ... .. . ...
ROW 03 : ... .. . ... : ... .. . ... : ... .. . ... : ... .. . ... : ... .. . ...
ROW 04 : ... .. . ... : ... .. . ... : ... .. . ... : ... .. . ... : ... .. . ...
ROW 05 : ... .. . ... : ... .. . ... : ... .. . ... : ... .. . ... : ... .. . ...
ROW 06 : ... .. . ... : ... .. . ... : ... .. . ... : ... .. . ... : ... .. . ...
ROW 07 : ... .. . ... : ... .. . ... : ... .. . ... : ... .. . ... : ... .. . ...
ROW 08 : E-3 08 . ... : ... .. . ... : ... .. . ... : ... .. . ... : ... .. . ...
ROW 09 : ... .. . ... : ... .. . ... : ... .. . ... : ... .. . ... : ... .. . ...
ROW 0A : ... .. . ... : ... .. . ... : ... .. . ... : ... .. . ... : ... .. . ...
ROW 0B : ... .. . ... : ... .. . ... : ... .. . ... : ... .. . ... : ... .. . ...
ROW 0C : ... .. . ... : ... .. . ... : ... .. . ... : ... .. . ... : ... .. . ...
ROW 0D : ... .. . ... : ... .. . ... : ... .. . ... : ... .. . ... : ... .. . ...
ROW 0E : ... .. . ... : ... .. . ... : ... .. . ... : ... .. . ... : ... .. . ...
ROW 0F : ... .. . ... : ... .. . ... : ... .. . ... : ... .. . ... : ... .. . ...
ROW 10 : B-2 08 . ... : ... .. . ... : ... .. . ... : ... .. . ... : ... .. . ...
ROW 11 : ... .. . ... : ... .. . ... : ... .. . ... : ... .. . ... : ... .. . ...
ROW 12 : ... .. . ... : ... .. . ... : ... .. . ... : ... .. . ... : ... .. . ...
ROW 13 : ... .. . ... : ... .. . ... : ... .. . ... : ... .. . ... : ... .. . ...
ROW 14 : C-3 08 . ... : ... .. . ... : ... .. . ... : ... .. . ... : ... .. . ...
ROW 15 : ... .. . ... : ... .. . ... : ... .. . ... : ... .. . ... : ... .. . ...
ROW 16 : B-2 08 . ... : ... .. . ... : ... .. . ... : ... .. . ... : ... .. . ...
ROW 17 : ... .. . ... : ... .. . ... : ... .. . ... : ... .. . ... : ... .. . ...
ROW 18 : A-2 08 . ... : ... .. . ... : ... .. . ... : ... .. . ... : ... .. . ...
ROW 19 : ... .. . ... : ... .. . ... : ... .. . ... : ... .. . ... : ... .. . ...
ROW 1A : ... .. . ... : ... .. . ... : ... .. . ... : ... .. . ... : ... .. . ...
ROW 1B : ... .. . ... : ... .. . ... : ... .. . ... : ... .. . ... : ... .. . ...
ROW 1C : ... .. . ... : ... .. . ... : ... .. . ... : ... .. . ... : ... .. . ...
ROW 1D : ... .. . ... : ... .. . ... : ... .. . ... : ... .. . ... : ... .. . ...
ROW 1E : --- .. . ... : ... .. . ... : ... .. . ... : ... .. . ... : ... .. . ...
ROW 1F : ... .. . ... : ... .. . ... : ... .. . ... : ... .. . ... : ... .. . ...
ROW 20 : A-2 08 . ... : ... .. . ... : ... .. . ... : ... .. . ... : ... .. . ...
ROW 21 : ... .. . ... : ... .. . ... : ... .. . ... : ... .. . ... : ... .. . ...
ROW 22 : ... .. . ... : ... .. . ... : ... .. . ... : ... .. . ... : ... .. . ...
ROW 23 : ... .. . ... : ... .. . ... : ... .. . ... : ... .. . ... : ... .. . ...
ROW 24 : C-3 08 . ... : ... .. . ... : ... .. . ... : ... .. . ... : ... .. . ...
ROW 25 : ... .. . ... : ... .. . ... : ... .. . ... : ... .. . ... : ... .. . ...
ROW 26 : ... .. . ... : ... .. . ... : ... .. . ... : ... .. . ... : ... .. . ...
ROW 27 : ... .. . ... : ... .. . ... : ... .. . ... : ... .. . ... : ... .. . ...
ROW 28 : E-3 08 . ... : ... .. . ... : ... .. . ... : ... .. . ... : ... .. . ...
ROW 29 : ... .. . ... : ... .. . ... : ... .. . ... : ... .. . ... : ... .. . ...
ROW 2A : ... .. . ... : ... .. . ... : ... .. . ... : ... .. . ... : ... .. . ...
ROW 2B : ... .. . ... : ... .. . ... : ... .. . ... : ... .. . ... : ... .. . ...
ROW 2C : D-3 08 . ... : ... .. . ... : ... .. . ... : ... .. . ... : ... .. . ...
ROW 2D : ... .. . ... : ... .. . ... : ... .. . ... : ... .. . ... : ... .. . ...
ROW 2E : E-3 08 . ... : ... .. . ... : ... .. . ... : ... .. . ... : ... .. . ...
ROW 2F : ... .. . ... : ... .. . ... : ... .. . ... : ... .. . ... : ... .. . ...
ROW 30 : F-3 08 . ... : ... .. . ... : ... .. . ... : ... .. . ... : ... .. . ...
ROW 31 : ... .. . ... : ... .. . ... : ... .. . ... : ... .. . ... : ... .. . ...
ROW 32 : ... .. . ... : ... .. . ... : ... .. . ... : ... .. . ... : ... .. . ...
ROW 33 : ... .. . ... : ... .. . ... : ... .. . ... : ... .. . ... : ... .. . ...
ROW 34 : C-3 08 . ... : ... .. . ... : ... .. . ... : ... .. . ... : ... .. . ...
ROW 35 : ... .. . ... : ... .. . ... : ... .. . ... : ... .. . ... : ... .. . ...
ROW 36 : D-3 08 . ... : ... .. . ... : ... .. . ... : ... .. . ... : ... .. . ...
ROW 37 : ... .. . ... : ... .. . ... : ... .. . ... : ... .. . ... : ... .. . ...
ROW 38 : E-3 08 . ... : ... .. . ... : ... .. . ... : ... .. . ... : ... .. . ...
ROW 39 : ... .. . ... : ... .. . ... : ... .. . ... : ... .. . ... : ... .. . ...
ROW 3A : ... .. . ... : ... .. . ... : ... .. . ... : ... .. . ... : ... .. . ...
ROW 3B : ... .. . ... : ... .. . ... : ... .. . ... : ... .. . ... : ... .. . ...
ROW 3C : ... .. . ... : ... .. . ... : ... .. . ... : ... .. . ... : ... .. . ...
ROW 3D : ... .. . ... : ... .. . ... : ... .. . ... : ... .. . ... : ... .. . ...
ROW 3E : --- .. . ... : ... .. . ... : ... .. . ... : ... .. . ... : ... .. . ...
ROW 3F : ... .. . ... : ... .. . ... : ... .. . ... : ... .. . ... : ... .. . ...

PATTERN 08
ROW 00 : A-2 08 A ... : ... .. . ... : ... .. . ... : ... .. . ... : ... .. . ...
ROW 01 : ... .. . ... : ... .. . ... : ... .. . ... : ... .. . ... : ... .. . ...
ROW 02 : ... .. . ... : ... .. . ... : ... .. . ... : ... .. . ... : ... .. . ...
ROW 03 : ... .. . ... : ... .. . ... : ... .. . ... : ... .. . ... : ... .. . ...
ROW 04 : ... .. . ... : ... .. . ... : ... .. . ... : ... .. . ... : ... .. . ...
ROW 05 : ... .. . ... : ... .. . ... : ... .. . ... : ... .. . ... : ... .. . ...
ROW 06 : ... .. . ... : ... .. . ... : ... .. . ... : ... .. . ... : ... .. . ...
ROW 07 : ... .. . ... : ... .. . ... : ... .. . ... : ... .. . ... : ... .. . ...
ROW 08 : E-3 08 . ... : ... .. . ... : ... .. . ... : ... .. . ... : ... .. . ...
ROW 09 : ... .. . ... : ... .. . ... : ... .. . ... : ... .. . ... : ... .. . ...
ROW 0A : ... .. . ... : ... .. . ... : ... .. . ... : ... .. . ... : ... .. . ...
ROW 0B : ... .. . ... : ... .. . ... : ... .. . ... : ... .. . ... : ... .. . ...
ROW 0C : ... .. . ... : ... .. . ... : ... .. . ... : ... .. . ... : ... .. . ...
ROW 0D : ... .. . ... : ... .. . ... : ... .. . ... : ... .. . ... : ... .. . ...
ROW 0E : ... .. . ... : ... .. . ... : ... .. . ... : ... .. . ... : ... .. . ...
ROW 0F : ... .. . ... : ... .. . ... : ... .. . ... : ... .. . ... : ... .. . ...
ROW 10 : B-2 08 . ... : ... .. . ... : ... .. . ... : ... .. . ... : ... .. . ...
ROW 11 : ... .. . ... : ... .. . ... : ... .. . ... : ... .. . ... : ... .. . ...
ROW 12 : ... .. . ... : ... .. . ... : ... .. . ... : ... .. . ... : ... .. . ...
ROW 13 : ... .. . ... : ... .. . ... : ... .. . ... : ... .. . ... : ... .. . ...
ROW 14 : C-3 08 . ... : ... .. . ... : ... .. . ... : ... .. . ... : ... .. . ...
ROW 15 : ... .. . ... : ... .. . ... : ... .. . ... : ... .. . ... : ... .. . ...
ROW 16 : B-2 08 . ... : ... .. . ... : ... .. . ... : ... .. . ... : ... .. . ...
ROW 17 : ... .. . ... : ... .. . ... : ... .. . ... : ... .. . ... : ... .. . ...
ROW 18 : A-2 08 . ... : ... .. . ... : ... .. . ... : ... .. . ... : ... .. . ...
ROW 19 : ... .. . ... : ... .. . ... : ... .. . ... : ... .. . ... : ... .. . ...
ROW 1A : ... .. . ... : ... .. . ... : ... .. . ... : ... .. . ... : ... .. . ...
ROW 1B : ... .. . ... : ... .. . ... : ... .. . ... : ... .. . ... : ... .. . ...
ROW 1C : ... .. . ... : ... .. . ... : ... .. . ... : ... .. . ... : ... .. . ...
ROW 1D : ... .. . ... : ... .. . ... : ... .. . ... : ... .. . ... : ... .. . ...
ROW 1E : --- .. . ... : ... .. . ... : ... .. . ... : ... .. . ... : ... .. . ...
ROW 1F : ... .. . ... : ... .. . ... : ... .. . ... : ... .. . ... : ... .. . ...
ROW 20 : A-2 08 . ... : ... .. . ... : ... .. . ... : ... .. . ... : ... .. . ...
ROW 21 : ... .. . ... : ... .. . ... : ... .. . ... : ... .. . ... : ... .. . ...
ROW 22 : ... .. . ... : ... .. . ... : ... .. . ... : ... .. . ... : ... .. . ...
ROW 23 : ... .. . ... : ... .. . ... : ... .. . ... : ... .. . ... : ... .. . ...
ROW 24 : ... .. . ... : ... .. . ... : ... .. . ... : ... .. . ... : ... .. . ...
ROW 25 : ... .. . ... : ... .. . ... : ... .. . ... : ... .. . ... : ... .. . ...
ROW 26 : ... .. . ... : ... .. . ... : ... .. . ... : ... .. . ... : ... .. . ...
ROW 27 : ... .. . ... : ... .. . ... : ... .. . ... : ... .. . ... : ... .. . ...
ROW 28 : D-3 08 . ... : ... .. . ... : ... .. . ... : ... .. . ... : ... .. . ...
ROW 29 : ... .. . ... : ... .. . ... : ... .. . ... : ... .. . ... : ... .. . ...
ROW 2A : ... .. . ... : ... .. . ... : ... .. . ... : ... .. . ... : ... .. . ...
ROW 2B : ... .. . ... : ... .. . ... : ... .. . ... : ... .. . ... : ... .. . ...
ROW 2C : ... .. . ... : ... .. . ... : ... .. . ... : ... .. . ... : ... .. . ...
ROW 2D : ... .. . ... : ... .. . ... : ... .. . ... : ... .. . ... : ... .. . ...
ROW 2E : ... .. . ... : ... .. . ... : ... .. . ... : ... .. . ... : ... .. . ...
ROW 2F : ... .. . ... : ... .. . ... : ... .. . ... : ... .. . ... : ... .. . ...
ROW 30 : G-2 08 . ... : ... .. . ... : ... .. . ... : ... .. . ... : ... .. . ...
ROW 31 : ... .. . ... : ... .. . ... : ... .. . ... : ... .. . ... : ... .. . ...
ROW 32 : ... .. . ... : ... .. . ... : ... .. . ... : ... .. . ... : ... .. . ...
ROW 33 : ... .. . ... : ... .. . ... : ... .. . ... : ... .. . ... : ... .. . ...
ROW 34 : ... .. . ... : ... .. . ... : ... .. . ... : ... .. . ... : ... .. . ...
ROW 35 : ... .. . ... : ... .. . ... : ... .. . ... : ... .. . ... : ... .. . ...
ROW 36 : ... .. . ... : ... .. . ... : ... .. . ... : ... .. . ... : ... .. . ...
ROW 37 : ... .. . ... : ... .. . ... : ... .. . ... : ... .. . ... : ... .. . ...
ROW 38 : A-2 08 . ... : ... .. . ... : ... .. . ... : ... .. . ... : ... .. . ...
ROW 39 : ... .. . ... : ... .. . ... : ... .. . ... : ... .. . ... : ... .. . ...
ROW 3A : ... .. . ... : ... .. . ... : ... .. . ... : ... .. . ... : ... .. . ...
ROW 3B : ... .. . ... : ... .. . ... : ... .. . ... : ... .. . ... : ... .. . ...
ROW 3C : ... .. . ... : ... .. . ... : ... .. . ... : ... .. . ... : ... .. . ...
ROW 3D : ... .. . ... : ... .. . ... : ... .. . ... : ... .. . ... : ... .. . ...
ROW 3E : --- .. . ... : ... .. . ... : ... .. . ... : ... .. . ... : ... .. . ...
ROW 3F : ... .. . ... : ... .. . ... : ... .. . ... : ... .. . ... : ... .. . ...

PATTERN 09
ROW 00 : A-3 08 A ... : ... .. . ... : ... .. . ... : ... .. . ... : ... .. . ...
ROW 01 : ... .. . ... : ... .. . ... : ... .. . ... : ... .. . ... : ... .. . ...
ROW 02 : ... .. . ... : ... .. . ... : ... .. . ... : ... .. . ... : ... .. . ...
ROW 03 : ... .. . ... : ... .. . ... : ... .. . ... : ... .. . ... : ... .. . ...
ROW 04 : C-4 08 . ... : ... .. . ... : ... .. . ... : ... .. . ... : ... .. . ...
ROW 05 : ... .. . ... : ... .. . ... : ... .. . ... : ... .. . ... : ... .. . ...
ROW 06 : D-4 08 . ... : ... .. . ... : ... .. . ... : ... .. . ... : ... .. . ...
ROW 07 : ... .. . ... : ... .. . ... : ... .. . ... : ... .. . ... : ... .. . ...
ROW 08 : E-4 08 . ... : ... .. . ... : ... .. . ... : ... .. . ... : ... .. . ...
ROW 09 : ... .. . ... : ... .. . ... : ... .. . ... : ... .. . ... : ... .. . ...
ROW 0A : ... .. . ... : ... .. . ... : ... .. . ... : ... .. . ... : ... .. . ...
ROW 0B : ... .. . ... : ... .. . ... : ... .. . ... : ... .. . ... : ... .. . ...
ROW 0C : D-4 08 . ... : ... .. . ... : ... .. . ... : ... .. . ... : ... .. . ...
ROW 0D : ... .. . ... : ... .. . ... : ... .. . ... : ... .. . ... : ... .. . ...
ROW 0E : C-4 08 . ... : ... .. . ... : ... .. . ... : ... .. . ... : ... .. . ...
ROW 0F : ... .. . ... : ... .. . ... : ... .. . ... : ... .. . ... : ... .. . ...
ROW 10 : B-3 08 . ... : ... .. . ... : ... .. . ... : ... .. . ... : ... .. . ...
ROW 11 : ... .. . ... : ... .. . ... : ... .. . ... : ... .. . ... : ... .. . ...
ROW 12 : ... .. . ... : ... .. . ... : ... .. . ... : ... .. . ... : ... .. . ...
ROW 13 : ... .. . ... : ... .. . ... : ... .. . ... : ... .. . ... : ... .. . ...
ROW 14 : C-4 08 . ... : ... .. . ... : ... .. . ... : ... .. . ... : ... .. . ...
ROW 15 : ... .. . ... : ... .. . ... : ... .. . ... : ... .. . ... : ... .. . ...
ROW 16 : B-3 08 . ... : ... .. . ... : ... .. . ... : ... .. . ... : ... .. . ...
ROW 17 : ... .. . ... : ... .. . ... : ... .. . ... : ... .. . ... : ... .. . ...
ROW 18 : A-3 08 . ... : ... .. . ... : ... .. . ... : ... .. . ... : ... .. . ...
ROW 19 : ... .. . ... : ... .. . ... : ... .. . ... : ... .. . ... : ... .. . ...
ROW 1A : ... .. . ... : ... .. . ... : ... .. . ... : ... .. . ... : ... .. . ...
ROW 1B : ... .. . ... : ... .. . ... : ... .. . ... : ... .. . ... : ... .. . ...
ROW 1C : ... .. . ... : ... .. . ... : ... .. . ... : ... .. . ... : ... .. . ...
ROW 1D : ... .. . ... : ... .. . ... : ... .. . ... : ... .. . ... : ... .. . ...
ROW 1E : --- .. . ... : ... .. . ... : ... .. . ... : ... .. . ... : ... .. . ...
ROW 1F : ... .. . ... : ... .. . ... : ... .. . ... : ... .. . ... : ... .. . ...
ROW 20 : A-3 08 . ... : ... .. . ... : ... .. . ... : ... .. . ... : ... .. . ...
ROW 21 : ... .. . ... : ... .. . ... : ... .. . ... : ... .. . ... : ... .. . ...
ROW 22 : ... .. . ... : ... .. . ... : ... .. . ... : ... .. . ... : ... .. . ...
ROW 23 : ... .. . ... : ... .. . ... : ... .. . ... : ... .. . ... : ... .. . ...
ROW 24 : C-4 08 . ... : ... .. . ... : ... .. . ... : ... .. . ... : ... .. . ...
ROW 25 : ... .. . ... : ... .. . ... : ... .. . ... : ... .. . ... : ... .. . ...
ROW 26 : D-4 08 . ... : ... .. . ... : ... .. . ... : ... .. . ... : ... .. . ...
ROW 27 : ... .. . ... : ... .. . ... : ... .. . ... : ... .. . ... : ... .. . ...
ROW 28 : E-4 08 . ... : ... .. . ... : ... .. . ... : ... .. . ... : ... .. . ...
ROW 29 : ... .. . ... : ... .. . ... : ... .. . ... : ... .. . ... : ... .. . ...
ROW 2A : ... .. . ... : ... .. . ... : ... .. . ... : ... .. . ... : ... .. . ...
ROW 2B : ... .. . ... : ... .. . ... : ... .. . ... : ... .. . ... : ... .. . ...
ROW 2C : D-4 08 . ... : ... .. . ... : ... .. . ... : ... .. . ... : ... .. . ...
ROW 2D : ... .. . ... : ... .. . ... : ... .. . ... : ... .. . ... : ... .. . ...
ROW 2E : E-4 08 . ... : ... .. . ... : ... .. . ... : ... .. . ... : ... .. . ...
ROW 2F : ... .. . ... : ... .. . ... : ... .. . ... : ... .. . ... : ... .. . ...
ROW 30 : F-4 08 . ... : ... .. . ... : ... .. . ... : ... .. . ... : ... .. . ...
ROW 31 : ... .. . ... : ... .. . ... : ... .. . ... : ... .. . ... : ... .. . ...
ROW 32 : ... .. . ... : ... .. . ... : ... .. . ... : ... .. . ... : ... .. . ...
ROW 33 : ... .. . ... : ... .. . ... : ... .. . ... : ... .. . ... : ... .. . ...
ROW 34 : C-4 08 . ... : ... .. . ... : ... .. . ... : ... .. . ... : ... .. . ...
ROW 35 : ... .. . ... : ... .. . ... : ... .. . ... : ... .. . ... : ... .. . ...
ROW 36 : D-4 08 . ... : ... .. . ... : ... .. . ... : ... .. . ... : ... .. . ...
ROW 37 : ... .. . ... : ... .. . ... : ... .. . ... : ... .. . ... : ... .. . ...
ROW 38 : E-4 08 . ... : ... .. . ... : ... .. . ... : ... .. . ... : ... .. . ...
ROW 39 : ... .. . ... : ... .. . ... : ... .. . ... : ... .. . ... : ... .. . ...
ROW 3A : ... .. . ... : ... .. . ... : ... .. . ... : ... .. . ... : ... .. . ...
ROW 3B : ... .. . ... : ... .. . ... : ... .. . ... : ... .. . ... : ... .. . ...
ROW 3C : ... .. . ... : ... .. . ... : ... .. . ... : ... .. . ... : ... .. . ...
ROW 3D : ... .. . ... : ... .. . ... : ... .. . ... : ... .. . ... : ... .. . ...
ROW 3E : --- .. . ... : ... .. . ... : ... .. . ... : ... .. . ... : ... .. . ...
ROW 3F : ... .. . ... : ... .. . ... : ... .. . ... : ... .. . ... : ... .. . ...

PATTERN 0B
ROW 00 : A-3 08 A ... : ... .. . ... : ... .. . ... : ... .. . ... : ... .. . ...
ROW 01 : ... .. . ... : ... .. . ... : ... .. . ... : ... .. . ... : ... .. . ...
ROW 02 : ... .. . ... : ... .. . ... : ... .. . ... : ... .. . ... : ... .. . ...
ROW 03 : ... .. . ... : ... .. . ... : ... .. . ... : ... .. . ... : ... .. . ...
ROW 04 : C-4 08 . ... : ... .. . ... : ... .. . ... : ... .. . ... : ... .. . ...
ROW 05 : ... .. . ... : ... .. . ... : ... .. . ... : ... .. . ... : ... .. . ...
ROW 06 : D-4 08 . ... : ... .. . ... : ... .. . ... : ... .. . ... : ... .. . ...
ROW 07 : ... .. . ... : ... .. . ... : ... .. . ... : ... .. . ... : ... .. . ...
ROW 08 : E-4 08 . ... : ... .. . ... : ... .. . ... : ... .. . ... : ... .. . ...
ROW 09 : ... .. . ... : ... .. . ... : ... .. . ... : ... .. . ... : ... .. . ...
ROW 0A : ... .. . ... : ... .. . ... : ... .. . ... : ... .. . ... : ... .. . ...
ROW 0B : ... .. . ... : ... .. . ... : ... .. . ... : ... .. . ... : ... .. . ...
ROW 0C : D-4 08 . ... : ... .. . ... : ... .. . ... : ... .. . ... : ... .. . ...
ROW 0D : ... .. . ... : ... .. . ... : ... .. . ... : ... .. . ... : ... .. . ...
ROW 0E : C-4 08 . ... : ... .. . ... : ... .. . ... : ... .. . ... : ... .. . ...
ROW 0F : ... .. . ... : ... .. . ... : ... .. . ... : ... .. . ... : ... .. . ...
ROW 10 : B-3 08 . ... : ... .. . ... : ... .. . ... : ... .. . ... : ... .. . ...
ROW 11 : ... .. . ... : ... .. . ... : ... .. . ... : ... .. . ... : ... .. . ...
ROW 12 : ... .. . ... : ... .. . ... : ... .. . ... : ... .. . ... : ... .. . ...
ROW 13 : ... .. . ... : ... .. . ... : ... .. . ... : ... .. . ... : ... .. . ...
ROW 14 : C-4 08 . ... : ... .. . ... : ... .. . ... : ... .. . ... : ... .. . ...
ROW 15 : ... .. . ... : ... .. . ... : ... .. . ... : ... .. . ... : ... .. . ...
ROW 16 : B-3 08 . ... : ... .. . ... : ... .. . ... : ... .. . ... : ... .. . ...
ROW 17 : ... .. . ... : ... .. . ... : ... .. . ... : ... .. . ... : ... .. . ...
ROW 18 : A-3 08 . ... : ... .. . ... : ... .. . ... : ... .. . ... : ... .. . ...
ROW 19 : ... .. . ... : ... .. . ... : ... .. . ... : ... .. . ... : ... .. . ...
ROW 1A : ... .. . ... : ... .. . ... : ... .. . ... : ... .. . ... : ... .. . ...
ROW 1B : ... .. . ... : ... .. . ... : ... .. . ... : ... .. . ... : ... .. . ...
ROW 1C : ... .. . ... : ... .. . ... : ... .. . ... : ... .. . ... : ... .. . ...
ROW 1D : ... .. . ... : ... .. . ... : ... .. . ... : ... .. . ... : ... .. . ...
ROW 1E : --- .. . ... : ... .. . ... : ... .. . ... : ... .. . ... : ... .. . ...
ROW 1F : ... .. . ... : ... .. . ... : ... .. . ... : ... .. . ... : ... .. . ...
ROW 20 : A-3 08 . ... : ... .. . ... : ... .. . ... : ... .. . ... : ... .. . ...
ROW 21 : ... .. . ... : ... .. . ... : ... .. . ... : ... .. . ... : ... .. . ...
ROW 22 : ... .. . ... : ... .. . ... : ... .. . ... : ... .. . ... : ... .. . ...
ROW 23 : ... .. . ... : ... .. . ... : ... .. . ... : ... .. . ... : ... .. . ...
ROW 24 : C-4 08 . ... : ... .. . ... : ... .. . ... : ... .. . ... : ... .. . ...
ROW 25 : ... .. . ... : ... .. . ... : ... .. . ... : ... .. . ... : ... .. . ...
ROW 26 : D-4 08 . ... : ... .. . ... : ... .. . ... : ... .. . ... : ... .. . ...
ROW 27 : ... .. . ... : ... .. . ... : ... .. . ... : ... .. . ... : ... .. . ...
ROW 28 : E-4 08 . ... : ... .. . ... : ... .. . ... : ... .. . ... : ... .. . ...
ROW 29 : ... .. . ... : ... .. . ... : ... .. . ... : ... .. . ... : ... .. . ...
ROW 2A : ... .. . ... : ... .. . ... : ... .. . ... : ... .. . ... : ... .. . ...
ROW 2B : ... .. . ... : ... .. . ... : ... .. . ... : ... .. . ... : ... .. . ...
ROW 2C : D-4 08 . ... : ... .. . ... : ... .. . ... : ... .. . ... : ... .. . ...
ROW 2D : ... .. . ... : ... .. . ... : ... .. . ... : ... .. . ... : ... .. . ...
ROW 2E : E-4 08 . ... : ... .. . ... : ... .. . ... : ... .. . ... : ... .. . ...
ROW 2F : ... .. . ... : ... .. . ... : ... .. . ... : ... .. . ... : ... .. . ...
ROW 30 : G-3 08 . ... : ... .. . ... : ... .. . ... : ... .. . ... : ... .. . ...
ROW 31 : ... .. . ... : ... .. . ... : ... .. . ... : ... .. . ... : ... .. . ...
ROW 32 : ... .. . ... : ... .. . ... : ... .. . ... : ... .. . ... : ... .. . ...
ROW 33 : ... .. . ... : ... .. . ... : ... .. . ... : ... .. . ... : ... .. . ...
ROW 34 : B-3 08 . ... : ... .. . ... : ... .. . ... : ... .. . ... : ... .. . ...
ROW 35 : ... .. . ... : ... .. . ... : ... .. . ... : ... .. . ... : ... .. . ...
ROW 36 : ... .. . ... : ... .. . ... : ... .. . ... : ... .. . ... : ... .. . ...
ROW 37 : ... .. . ... : ... .. . ... : ... .. . ... : ... .. . ... : ... .. . ...
ROW 38 : A-3 08 . ... : ... .. . ... : ... .. . ... : ... .. . ... : ... .. . ...
ROW 39 : ... .. . ... : ... .. . ... : ... .. . ... : ... .. . ... : ... .. . ...
ROW 3A : ... .. . ... : ... .. . ... : ... .. . ... : ... .. . ... : ... .. . ...
ROW 3B : ... .. . ... : ... .. . ... : ... .. . ... : ... .. . ... : ... .. . ...
ROW 3C : ... .. . ... : ... .. . ... : ... .. . ... : ... .. . ... : ... .. . ...
ROW 3D : ... .. . ... : ... .. . ... : ... .. . ... : ... .. . ... : ... .. . ...
ROW 3E : --- .. . ... : ... .. . ... : ... .. . ... : ... .. . ... : ... .. . ...
ROW 3F : ... .. . B02 : ... .. . ... : ... .. . ... : ... .. . ... : ... .. . ...

# End of export
